<svg width="500" height="500" viewBox="0 0 500 500" fill="none" xmlns="http://www.w3.org/2000/svg">
<g clip-path="url(#clip0_306_126)">
<path d="M432.2 152.4C428.4 153.3 419.1 153.6 415.2 153.6C411.2 153.6 405.6 153 397 156.8C390.8 159.5 386.7 164.9 384.8 167.7C385.4 166.9 385.9 166.2 386.4 165.9C386.4 165.9 392.7 158.7 405.5 159.6C405.1 160.3 404.7 161.2 405.1 162.1C405.2 162.2 405.2 162.3 405.3 162.5C405.3 162.5 405.3 162.6 405.4 162.6C405.4 162.6 410 161.1 413.2 160.1C420.2 158.3 424.6 157.2 429.4 155.2C435.9 152.5 438 151.4 437.8 150.9C437.5 150.3 435.9 151.5 432.2 152.4Z" fill="#005778"/>
<path d="M386.4 165.8C385.9 166.1 385.4 166.8 384.8 167.6C382.5 170.9 379.6 176.7 379.6 176.7C383.9 170.4 397.3 165 405.3 162.3C405.2 162.2 405.1 162.1 405.1 161.9C404.7 161 405.1 160.1 405.5 159.4C392.7 158.6 386.4 165.8 386.4 165.8Z" fill="white"/>
<path d="M399.2 315.2C396.5 320.7 403.6 337.8 410 342.9C405.3 341.5 380.5 334.4 376.5 343.6C372.1 353.7 396.3 390.6 399.1 397.5C388 386.4 357.4 361.6 353.1 364.5C348.8 367.3 349.8 381.2 351 388.2C346.8 383.1 339.6 374.9 333.4 377.4C327.2 379.8 327.9 403.6 327.5 413.7C322.4 401.8 314 377.9 306.2 378.7C298.4 379.6 289.7 395.9 288.1 402.1C286.9 395.9 281.8 382.2 274.2 382.2C266.6 382.2 248.7 418.5 243.3 430.3C243.3 421.2 245.5 376.7 240.6 374.5C235.8 372.3 219.4 382.4 215.9 387.1C217.2 381.3 218.3 361.5 214 359.1C209.6 356.7 197.2 356 174.8 376.7C178.5 368.7 184.7 360.1 186.2 351.7C195.5 351.2 204.7 350.2 214 348.4C234.3 363.1 259.1 371.7 286.1 371.7C354.1 371.7 409.2 316.6 409.2 248.6C409.2 243.3 408.9 238 408.2 232.9C412.8 228.6 417.1 224.5 421.2 220.6C420.3 222.8 419.8 225.5 419.8 228.8C420.1 239.2 446.9 241.4 461.2 242.5C445.2 244.7 417.4 256.2 422.7 262.4C428 268.6 443.4 277.1 445.6 278.2C438.2 278.2 414 280.7 411.3 287.6C408.6 294.5 446.3 317.4 460.1 322.8C442.9 317.8 402 309.7 399.2 315.2Z" fill="#F26A24"/>
<path d="M378.4 138.4C370.4 140 362 142.3 353.5 145.5C334.1 132.8 310.9 125.4 286 125.4C218 125.4 162.9 180.5 162.9 248.4C162.9 264.8 166.1 280.4 171.9 294.6C164.9 299.8 158.2 303.9 151.3 307.1C156.3 301.1 160.7 289.6 155 286.5C151.1 284.4 133.1 283.6 133.1 283.6C133.1 283.6 153.4 270 152.9 260.1C152.4 250.2 120.1 245.2 107.3 242.3C118.6 239.9 155.2 231.7 156.7 224.3C158.3 216.9 145.3 211.7 139.8 209.2C145.9 209.3 161.5 211.9 163.5 204.3C165.9 195.6 127.7 173 118.9 169.8C120.8 170.3 157.3 178.8 170.6 175.9C180.5 173.8 169 160.4 167 158.8C169.9 160.2 186.6 163.7 191.4 155.7C196.2 147.8 180 116.2 170.9 102.8C179 110.8 215.8 137 221.3 132.6C226.8 128.1 222.6 113.7 219.7 109C225.6 114.6 231.5 122 239 121.8C242.8 121.7 247.5 109.2 248.3 81C253.4 96.8 265.6 118.3 274.6 117C283.6 115.7 286.6 102.4 287.9 96.7C288.9 102.8 293.6 118.4 299.6 119C306.9 120.1 321 87.5 326.1 72.7C326.9 80 321.5 117.4 329.4 120.5C337.3 123.6 350.4 107.9 357.8 99C353.3 107.5 344.5 128.2 349.7 133.1C354.9 138 373 132.9 380.1 127C378.3 131.6 377.9 135.1 378.4 138.4Z" fill="#F26A24"/>
<path d="M475 137.8C465.6 138.7 446.8 145.5 446.8 145.5C412.5 136.6 371.7 135.6 321.7 166C312.4 171.7 303.8 177.6 296 183.6C288.1 189.6 280.9 195.7 274.1 201.8C271.2 204.4 267.4 207.8 264.2 211.1C248 216.5 240.8 211.5 218.5 214.4C200.9 216.7 194 222.7 190.1 227.5C189.6 228.9 189.7 230.1 190.6 230.8C192.7 232.5 196 231.6 202.1 231.2C208.3 230.7 217.6 230.9 223.8 234.8C227.8 237.3 229.6 243.2 230.2 246.6C225.6 251.5 221 256.3 216.5 260.8C188.3 288.7 169.4 305.3 148.2 313.6C102.2 331.6 76.3 310.5 65.9001 304.2C53.3 296.1 36.6 293.4 27.6 291.8C18.6 290.1 13.7 285.8 11.8 284.2C9.90005 282.6 8.40005 279.8 6.20005 280.5C5.60005 280.7 5.20005 280.8 4.80005 281.2C5.10005 280.9 5.60005 280.7 6.20005 280.5C6.50005 284.4 19.6 316.9 61.1 322.8C73 324.5 76.7001 324 78.9 323.8C71.9 317.7 66.2 309.1 65.7 308.6C67.3 310 68.9 311.3 70.5 312.5C82.9 325.7 96.9 331.2 108.8 333.1C109.6 333.3 121.2 333.8 121.2 333.8C134.8 333.5 153.1 329.5 170 324.6C219.8 310.2 267.8 267 267.8 267C267.8 267 265.1 278.6 264.1 282.7C263.4 286 261 296.8 256.4 308.2C256.4 308.2 255 311.6 253 315.8C250 322 245.9 329.9 245.9 333.1V333.5C245.9 333.5 245.9 333.9 246.1 334.3C249.8 332.3 254.9 328.9 260.7 324C269.8 316.4 281.2 305 294.5 288.6C324.4 251.8 329.1 226.6 350.1 206.9C359 198.6 382.3 185.7 394.3 181.6C394.4 181.5 394.5 181.5 394.6 181.5C414.8 170 434.6 161 437.8 159.7C449.6 154.9 491.2 141.1 495.6 148C493.7 140 484.3 136.9 475 137.8ZM429.4 155.1C424.6 157 420.3 158.2 413.2 160C410 161 405.4 162.5 405.4 162.5C405.4 162.5 405.4 162.4 405.3 162.4C397.3 165.1 383.9 170.4 379.6 176.8C379.8 176.4 382.5 170.9 384.7 167.7C386.6 164.9 390.7 159.5 396.9 156.8C405.5 153 411.1 153.6 415.1 153.6C419.1 153.6 428.4 153.3 432.1 152.4C435.9 151.5 437.5 150.3 437.7 150.8C438 151.3 435.9 152.5 429.4 155.1Z" fill="#008E97"/>
<path d="M264 282.5C263.3 285.8 260.9 296.6 256.3 308C240 316.6 214 327.7 190.5 333.2C144.2 344.1 114.5 334.6 109.5 333L108.8 332.8C109.9 333 121.2 333.5 121.2 333.5C123.6 333.6 155.2 334.8 189.9 321.8C218.3 311.4 246.2 294.5 264 282.5Z" fill="white"/>
<path d="M267.7 266.7C267.7 266.7 265 278.3 264 282.4C246.2 294.4 218.3 311.3 189.9 321.7C155.2 334.7 123.6 333.5 121.2 333.4C134.8 333.1 153.1 329.1 170 324.2C219.7 309.9 267.7 266.7 267.7 266.7Z" fill="#005778"/>
<path d="M385.8 246.4C382.3 257.3 376.8 272.2 370.2 284.8C362.3 299.8 351.9 310.1 346.4 314.1C345.5 313.5 345.1 312.4 345.1 311.2C345.1 309.1 349.7 298.1 351.6 274.9C357.5 270.5 362.8 266.2 367.5 262.3C373.5 257.3 379.7 251.9 385.8 246.4Z" fill="#008E97"/>
<path d="M112.2 298.3C112.2 299.8 112 301.3 111.6 302.8C110.9 305.4 109.5 308.6 107.3 311.8C106 313.8 103.7 316.3 103.7 316.3C103.3 316.3 101.6 316.4 100.2 316.3C98.7 316.2 97.2 315.9 96.6 315.8C96.2 315.3 115.3 302.3 110.1 296C110.4 296 112.1 295.6 112.2 298.3Z" fill="#005778"/>
<path d="M493.1 156.2C493.1 156.2 492.3 157.3 489.8 159.6C487.2 161.8 482.9 165.2 475.7 169.6C468.8 173.8 449.7 186.8 435 200.3C434.5 200.8 395.2 237.9 394.2 238.8C394.1 239.1 389 258.1 376.8 282.8C368.3 300.1 355.5 310.9 351 313.4C350.7 313.5 348.1 315.2 346.3 314.1C351.8 310.1 362.2 299.8 370.1 284.8C376.7 272.2 382.2 257.3 385.7 246.4C379.6 251.9 373.4 257.3 367.5 262.2C362.8 266.1 357.5 270.3 351.6 274.8C351.6 274.8 338.9 284.2 331.7 288.9C327.7 291.6 309.2 303.1 298 309.2C288.5 314.4 268.6 323.8 268.5 323.8C258.1 332.5 250 336.6 247.8 336.1C246.5 335.8 246 334.2 246 334.1C249.7 332.1 254.8 328.7 260.6 323.8C269.7 316.2 281.1 304.8 294.4 288.4C324.3 251.6 329 226.4 350 206.8C358.9 198.5 382.2 185.6 394.2 181.5C394.3 181.4 394.4 181.4 394.5 181.4C380.8 189.2 366.9 198.2 357.9 206.9C340.4 223.3 334.4 242.4 317 268.6L316.6 269.3C375.1 224.9 420.4 173.5 467.1 157.1C468.6 156.6 470 156.1 471.4 155.6C471.5 155.6 471.5 155.6 471.6 155.5C487.5 150.1 493.9 149.3 494.4 152.3C494.6 153.6 493.5 155.5 493.1 156.2Z" fill="#005778"/>
<path d="M96.6 315.8C84.8 313.5 71 305.5 66.7 303.1C68.2 301.7 71.8 299.1 78.6 299.5C88 300.1 98.4 300.8 103.3 299.4C107.5 298.1 108.3 296.3 110.1 296.1C115.3 302.3 96.2 315.2 96.6 315.8Z" fill="#008E97"/>
<path d="M218.5 214.3C240.8 211.4 248 216.4 264.2 211C267.4 207.8 271.2 204.4 274.1 201.7C269.5 203.2 266 204.1 262.6 204.6C255 206.1 249.5 205.7 233.7 207.8C208.9 211.1 197.4 218.8 194.1 221.8C193.1 222.7 192.4 223.5 191.3 224.9C190.6 225.9 190.1 227.1 190 227.3C194 222.7 200.9 216.6 218.5 214.3Z" fill="#005778"/>
<path d="M252.9 315.7C249.9 321.9 245.8 329.8 245.8 333V333.4C208 348.1 177.3 347.5 177.1 347.5C125.2 350 84.3001 328.8 84.3001 328.8C84.2001 328.8 83.9001 328.8 83.5001 328.8C78.6001 328.8 54.5001 328.4 38.7001 321.1C21.4001 313.1 11.4001 300.5 7.10008 291C3.90008 283.9 3.70008 281.7 4.70008 280.8C4.80008 280.7 4.90008 280.6 5.00008 280.6C5.30008 280.4 5.70008 280.3 6.10008 280.2C6.40008 284.1 19.5001 316.6 61.0001 322.5C72.9001 324.2 76.6001 323.7 78.8001 323.5C71.8001 317.4 66.1001 308.8 65.6001 308.3C67.2001 309.7 68.8001 311 70.4001 312.2C82.8001 325.4 96.8001 330.9 108.7 332.8L109.4 333C114.5 334.7 144.1 344.1 190.4 333.2C213.9 327.7 239.9 316.6 256.2 308C256.3 308 254.9 311.5 252.9 315.7Z" fill="#005778"/>
<path d="M500 149.2C499.9 147.3 499.6 146.2 499.6 146.2C497.3 138.3 489.2 133.4 478.2 133.4C477 133.4 475.8 133.5 474.7 133.6C466.2 134.4 451.2 139.5 446.7 141.1C432.7 137.6 419.5 135.8 406.6 135.8C399.9 135.8 393.2 136.3 386.6 137.2L383.9 137.6C383.9 137.6 382.8 134.1 385.6 126C387 121.8 389 117.9 389 117.9C389 117.9 358.5 133.8 354.7 128.7C350.9 123.6 368 83.4 368 83.4C368 83.4 338.6 116.1 332.8 114.6C330.5 114 330.3 102.2 330.2 89.4C330.1 72.1 330.6 52.4 330.6 52.4C330.6 52.4 306.4 112.6 300.5 112.3C295.4 112 287.9 79.9 287.9 79.9C287.9 79.9 283.2 107.6 274.8 111C266.4 114.4 244.8 62.6 244.8 62.6C244.8 62.6 243.8 114.5 237.8 115.6C231.8 116.8 212.6 97.4 212.6 97.4C212.6 97.4 221.6 123.2 218.5 126.6C216.7 128.6 198.3 117.2 179.1 103.5C168 95.6 158.8 88.9 158.8 88.9C158.8 88.9 169.6 106.8 178.2 125.6C184.1 138.5 187.7 150.9 186.2 153.3C182.4 159.2 154 150.8 154 150.8C154 150.8 170.2 166.4 169.1 170.4C168.6 172.3 152.5 170.9 136.2 168.7C118.9 166.3 101.2 163.1 101.2 163.1C101.2 163.1 158.9 196.7 157.1 202.7C155.7 207.5 119.7 203.6 119.7 203.6C119.7 203.6 150.9 217.9 150.8 222.6C150.7 227.3 89.7 242.8 89.7 242.8C89.7 242.8 145 254.4 146 260.5C147.1 266.7 124.2 286.4 124.2 286.4C124.2 286.4 150.8 288.8 152.1 292.3C153.4 295.8 145.6 309.5 138.9 311.7C130.5 314.4 122.9 316.1 113.7 316.1C112.4 316.1 111.1 316.1 109.8 316C110.3 315.4 110.7 314.8 111.1 314.2C113.4 310.9 115.1 307.3 116 303.9C116.5 302 116.7 300.2 116.7 298.4V298.3V298.2C116.6 296.2 116 294.4 114.8 293.2C112.5 291.2 110.4 291.5 108.9 292.1L103.7 294.7C103.3 294.9 102.9 295 102.3 295.2C101.3 295.5 99.2 295.9 94.8 295.9C90.6 295.9 85.7 295.6 80.9 295.3C80.9 295.3 78 295.1 77.4 295.1C71.7 295.1 67.9 296.9 65.6 298.6L64.4 297.9C52.7 291.7 39.1 289.2 30.6 287.6C29.9 287.5 29.3 287.4 28.7 287.3C19.3 285.5 14.2 279.9 13.8 279.4C13 278.5 12 277.4 10.6 276.6C10.6 276.6 8.19996 275.1 4.49996 276.2C2.09996 277 1.09996 278.9 1.09996 278.9C-0.900043 282.3 0.999957 287.2 3.59996 292.8C6.49996 299.1 15.6 314.9 37.3 325C44.4 328.3 53.8 330.7 65.1 332C73.6 333 80.8999 333.1 83.7 333.1C86.5 334.4 95 338.4 107.6 342.3C121.5 346.6 143.2 351.8 168.1 351.9C168.1 351.9 176.9 352 181.7 351.7C182.2 353.7 178.7 360.8 174.6 369.1C169.7 379 163.4 390.7 163.4 390.7C163.4 390.7 174.8 380.6 185.4 373.2C196.1 365.7 208 359.7 210.9 363.1C216.2 369.7 210.5 396.8 210.5 396.8C210.5 396.8 232.1 377.7 237.1 380.3C239.4 381.5 239.6 395.8 239.6 410.8C239.6 428.6 239.2 447.5 239.2 447.5C239.2 447.5 268.9 387.4 275.1 389.1C281.3 390.8 288.1 418.2 288.1 418.2C288.1 418.2 299.4 384.8 306.3 385.6C309.1 385.3 315 396.1 320.3 407.2C326.1 419.3 331 431.2 331 431.2C331 431.2 331.1 418.8 332 406.1C332.8 394.6 334.2 383.5 336.8 382.8C342.1 381.5 357.5 402.1 357.5 402.1C357.5 402.1 352.1 373.4 356.3 370.9C360.6 368.5 411.8 412.7 411.8 412.7C411.8 412.7 378.2 350.4 382.3 345.7C386.4 340.9 422.3 350.6 422.3 350.6C422.3 350.6 417 344.3 412.4 337.1C407.6 329.6 403.6 321.3 405.5 319.3C407.2 317.5 425.9 319.4 445.2 323.1C467.5 327.4 482 330.5 482 330.5C482 330.5 468.9 323.4 449.5 311.7C432.7 301.6 418 290.3 418.6 288.4C420 284.4 460 280.6 460 280.6C460 280.6 453.3 276.6 446.1 272.2C438.3 267.4 429.9 261.4 429.9 259.3C429.9 257.4 439.9 252.7 453.2 248.6C469.1 243.7 483.8 240.5 483.8 240.5C483.8 240.5 429.2 236.1 425.8 228.3C423.5 223 427.7 216.1 430.9 211.6C434 207.1 438.5 203.1 438.5 203.1C453.4 189.3 472.4 176.7 478.4 172.9C478.8 172.6 479.2 172.4 479.7 172.1C479.7 172.1 493.7 161.8 495.1 160.6C496.4 159.5 499.6 156.2 500.3 151.9C499.8 152.2 500.1 151.1 500 149.2ZM155.1 286.5C151.2 284.4 133.2 283.6 133.2 283.6C133.2 283.6 153.5 270 153 260.1C152.5 250.2 120.2 245.2 107.4 242.3C118.7 239.9 155.3 231.7 156.8 224.3C158.4 216.9 145.4 211.7 139.9 209.2C146 209.3 161.6 211.9 163.6 204.3C166 195.6 127.8 173 119 169.8C120.9 170.3 157.4 178.8 170.7 175.9C180.6 173.7 169.1 160.4 167.1 158.8C170 160.2 186.7 163.7 191.5 155.7C196.3 147.8 180.1 116.2 171 102.8C179.1 110.8 215.9 137 221.4 132.6C226.9 128.1 222.7 113.7 219.8 109C225.7 114.6 231.6 122 239.1 121.8C242.9 121.7 247.6 109.2 248.4 81C253.5 96.8 265.7 118.3 274.7 117C283.7 115.7 286.7 102.4 288 96.7C289 102.8 293.7 118.4 299.7 119C307 120.1 321.1 87.5 326.2 72.7C327 80 321.6 117.4 329.5 120.5C337.4 123.6 350.5 107.9 357.9 99C353.4 107.5 344.6 128.2 349.8 133.2C355 138.1 373.1 133 380.2 127.1C378.2 131.4 377.8 134.9 378.3 138.1C370.3 139.7 361.9 142 353.4 145.2C334 132.5 310.8 125.1 285.9 125.1C217.9 125.1 162.8 180.2 162.8 248.2C162.8 264.6 166 280.2 171.8 294.4C164.8 299.6 158.1 303.7 151.2 306.9C156.4 301.1 160.8 289.6 155.1 286.5ZM78.6 299.4C88 300 98.4 300.7 103.3 299.3C107.5 298 108.3 296.2 110.1 296C110.4 296 112.1 295.6 112.2 298.3C112.2 299.8 112 301.3 111.6 302.8C110.9 305.4 109.5 308.6 107.3 311.8C106 313.8 103.7 316.3 103.7 316.3C103.3 316.3 101.6 316.4 100.2 316.2C98.7999 316.1 97.2 315.8 96.6 315.7C84.7999 313.5 71 305.5 66.7 303C68.1 301.6 71.7999 299 78.6 299.4ZM461.2 242.3C445.2 244.5 417.4 256 422.7 262.2C428 268.4 443.4 276.9 445.6 278C438.2 278 414 280.5 411.3 287.4C408.6 294.3 446.3 317.3 460.1 322.7C442.9 317.9 402 309.8 399.2 315.3C396.5 320.8 403.6 337.9 410 343C405.3 341.6 380.5 334.5 376.5 343.7C372.1 353.8 396.3 390.7 399.1 397.6C387.9 386.5 357.4 361.7 353.1 364.6C348.8 367.4 349.8 381.3 351 388.3C346.8 383.2 339.6 375 333.4 377.5C327.2 380 327.9 403.7 327.5 413.8C322.4 401.9 314 378 306.2 378.8C298.4 379.7 289.7 396 288.1 402.2C286.9 396 281.8 382.3 274.2 382.3C266.5 382.3 248.7 418.6 243.3 430.4C243.3 421.3 245.5 376.8 240.6 374.6C235.8 372.4 219.4 382.5 215.9 387.2C217.2 381.4 218.3 361.6 214 359.2C209.6 356.8 197.2 356.1 174.8 376.8C178.5 368.8 184.7 360.2 186.2 351.8C195.5 351.3 204.7 350.3 214 348.5C234.3 363.2 259.1 371.8 286.1 371.8C354.1 371.8 409.2 316.7 409.2 248.7C409.2 243.4 408.9 238.1 408.2 233C412.8 228.7 417.1 224.6 421.2 220.7C420.3 222.9 419.7 225.6 419.8 228.9C420 238.9 446.9 241.2 461.2 242.3ZM495.6 147.9C491.2 141 449.6 154.8 437.8 159.6C434.6 160.9 414.8 169.8 394.6 181.4C380.9 189.2 367 198.2 358 206.9C340.5 223.3 334.5 242.4 317.1 268.6L316.7 269.3C375.2 224.9 420.5 173.5 467.2 157.1C468.7 156.6 470.1 156.1 471.5 155.6C471.6 155.6 471.6 155.6 471.7 155.5C487.6 150.1 494 149.3 494.5 152.3C494.7 153.6 493.7 155.5 493.3 156.3C493.3 156.3 492.5 157.4 490 159.7C487.4 161.9 483.1 165.3 475.9 169.7C469 173.9 449.9 186.9 435.2 200.4C434.7 200.9 395.4 238 394.4 238.9C394.3 239.2 389.2 258.2 377 282.9C368.5 300.2 355.7 311 351.2 313.5C350.9 313.6 348.3 315.3 346.5 314.2C345.6 313.6 345.2 312.5 345.2 311.3C345.2 309.2 349.8 298.2 351.7 275C351.7 275 339 284.4 331.8 289.2C327.8 291.9 309.3 303.4 298.1 309.5C288.6 314.7 268.7 324.1 268.6 324.1C258.2 332.8 250.1 336.9 247.9 336.4C246.6 336.1 246.1 334.5 246.1 334.4C246 333.9 245.9 333.6 245.9 333.6C208.2 348.3 177.4 347.7 177.3 347.7C125.4 350.2 84.5 329 84.5 329C84.4 329 84.1 329 83.7 329C78.7999 329 54.7 328.6 38.9 321.3C21.6 313.3 11.6 300.7 7.29996 291.2C4.09996 284.1 3.89996 281.9 4.89996 281C5.19996 280.7 5.69996 280.5 6.29996 280.3C8.49996 279.7 9.89996 282.4 11.9 284C13.8 285.6 18.7 290 27.7 291.6C36.7 293.3 53.4 296 66 304C76.4 310.2 102.3 331.4 148.3 313.4C169.5 305.1 188.5 288.5 216.6 260.6C221.2 256.1 225.7 251.3 230.3 246.4C229.6 243.1 227.8 237.1 223.9 234.6C217.7 230.7 208.4 230.6 202.2 231C196 231.5 192.8 232.3 190.7 230.6C189.9 230 189.8 229 190 228.1C190.2 227.2 190.6 226.3 191.1 225.5C191.2 225.3 191.4 225.1 191.5 224.9C192.5 223.5 193.3 222.7 194.3 221.8C197.5 218.8 209.1 211 233.9 207.8C249.7 205.7 255.2 206.1 262.8 204.6C266.1 204 269.7 203.1 274.3 201.7C281.1 195.6 288.3 189.5 296.2 183.5C304.1 177.5 312.6 171.6 321.9 166C371.9 135.6 412.6 136.6 447 145.5C447 145.5 465.8 138.7 475.2 137.8C484.3 136.9 493.7 140 495.6 147.9Z" fill="white"/>
</g>
<defs>
<clipPath id="clip0_306_126">
<rect width="500" height="500" fill="white"/>
</clipPath>
</defs>
</svg>
