<svg width="500" height="500" viewBox="0 0 500 500" fill="none" xmlns="http://www.w3.org/2000/svg">
<path d="M379.249 208.298C349.748 191.175 320.71 195.137 298.688 204.937C297.716 197.705 295.827 189.766 292.673 180.476C288.003 166.659 282.884 153.455 278.374 141.801C272.443 126.496 267.929 113.382 265.452 104.61L249.402 49.659L232.739 104.646C230.194 113.381 225.8 126.564 219.901 141.884C215.416 153.546 210.333 166.765 205.692 180.581C202.574 189.885 200.689 197.831 199.739 205.074C177.692 195.317 148.64 191.413 119.178 208.601C95.093 222.671 82.197 247.117 85.514 272.411C88.541 295.423 104.295 313.502 126.614 319.63L143.237 324.19L147.305 307.462C147.889 305.191 153.885 284.247 172.768 284.628C185.867 284.9 196.74 296.464 202.179 303.942C200.421 309.23 199.485 315.567 200.381 322.394L192.985 312.543L179.61 322.502C167.566 331.462 150.076 353.608 160.884 379.746C165.597 391.143 175.731 398.908 189.414 401.632C197.782 403.294 207.288 402.907 216.098 400.973C219.564 412.088 225.883 425.535 237.377 437.544L249.501 450.198L261.585 437.515C273.056 425.477 279.336 412.008 282.791 400.889C291.605 402.79 301.104 403.16 309.472 401.476C323.148 398.731 333.26 390.937 337.951 379.529C348.701 353.363 331.146 331.256 319.091 322.325L305.691 312.405L298.32 322.267C299.205 315.44 298.247 309.11 296.478 303.811C301.902 296.329 312.746 284.736 325.842 284.439C344.728 284.015 350.764 304.945 351.395 307.335L355.496 324.056C355.471 323.929 372.079 319.333 372.079 319.333C394.395 313.162 410.093 295.035 413.066 272.009C416.325 246.723 403.368 222.302 379.25 208.297" fill="black"/>
<path d="M243.87 106.997C241.836 116.565 236.593 130.183 230.521 145.962C226.072 157.515 221.036 170.607 216.479 184.188C212.107 197.237 210.323 206.961 210.323 216.029C210.323 218.93 210.657 221.766 210.997 224.616C194.185 213.085 161.058 197.32 124.929 218.412C104.861 230.135 94.082 250.25 96.794 270.926C99.209 289.317 111.789 303.789 129.631 308.685L134.924 310.134L136.24 304.796C136.57 303.489 144.517 272.705 172.996 273.277C195.917 273.737 210.898 295.996 214.944 302.837C213.019 306.393 211.42 311.297 211.42 316.925C211.42 322.959 213.476 329.822 218.722 336.703C216.63 339.535 213.204 343.008 209.205 343.338C203.502 343.805 197.73 337.808 193.894 332.687L190.693 328.421L186.411 331.612C177.652 338.135 163.229 355.678 171.39 375.412C174.657 383.3 181.654 388.511 191.628 390.492C201.939 392.535 214.955 390.677 224.2 386.468C225.991 396.887 231.063 414.521 245.598 429.692L249.477 433.745L253.346 429.685C267.845 414.471 272.877 396.822 274.643 386.396C283.903 390.583 296.937 392.415 307.248 390.336C317.204 388.333 324.187 383.1 327.428 375.212C335.531 355.463 321.087 337.949 312.313 331.448L308.028 328.272L304.834 332.553C301.005 337.674 295.244 343.693 289.538 343.233C285.543 342.907 282.109 339.448 280.01 336.627C285.22 329.757 287.261 322.919 287.261 316.9C287.261 311.239 285.648 306.318 283.704 302.75C287.736 295.905 302.673 273.596 325.583 273.085C354.058 272.448 362.085 303.217 362.412 304.528L363.743 309.845L369.036 308.396C386.859 303.46 399.408 288.966 401.779 270.568C404.447 249.885 393.625 229.788 373.532 218.116C337.33 197.089 304.218 212.966 287.446 224.541C287.758 221.767 288.08 219.014 288.08 216.186C288.08 207.02 286.307 197.136 281.898 184.102C277.312 170.546 272.247 157.476 267.776 145.941C261.663 130.172 256.392 116.555 254.336 106.987L249.072 82.454L243.869 106.998" fill="white"/>
<path d="M249.5 425.994C270.003 404.481 270.249 377.348 270.249 377.348C279.32 386.38 314.572 392.421 322.476 373.183C331.145 352.062 309.127 335.743 309.127 335.743C287.787 364.318 273.469 336.351 273.469 336.351C289.719 318.808 277.526 302.992 277.526 302.992C278.588 299.816 296.611 268.387 325.467 267.743C358.725 266.993 367.611 303.246 367.611 303.246C402.486 293.591 409.222 245.025 370.845 222.741C322.146 194.456 279.716 237.546 279.716 237.546C283.664 221.419 284.788 209.366 276.826 185.815C266.033 153.883 252.803 125.352 249.105 108.109C245.44 125.355 232.268 153.934 221.554 185.887C213.654 209.46 214.814 221.513 218.784 237.626C218.784 237.626 176.256 194.641 127.626 223.034C89.296 245.412 96.149 293.953 131.045 303.528C131.045 303.528 139.844 267.257 173.105 267.935C201.968 268.507 220.056 299.892 221.126 303.061C221.126 303.061 208.969 318.913 225.263 336.413C225.263 336.413 211.004 364.426 189.609 335.899C189.609 335.899 167.613 352.265 176.339 373.365C184.294 392.585 219.523 386.461 228.573 377.407C228.573 377.407 228.885 404.54 249.427 426.002" fill="black"/>
<path d="M336.736 221.223C297.105 221.263 264.608 266.222 264.608 266.222C266.018 258.866 282.961 225.768 267.628 186.209C252.295 146.653 249.166 130.718 249.166 130.718L249.093 131.171V130.729C249.093 130.729 245.993 146.668 230.755 186.267C215.513 225.862 232.539 258.924 233.96 266.265C233.96 266.265 201.359 221.389 161.727 221.44C122.103 221.483 89.11 266.533 125.729 293.138C125.729 293.138 136.446 259.899 173.38 259.83C200.543 259.772 227.757 288.879 228.91 303.304C228.91 303.304 216.474 320.844 233.765 335.522C233.765 335.522 215.086 374.773 189.188 346.499C189.188 346.499 169.273 371.387 195.315 377.413C215.977 382.186 236.328 361.25 236.328 361.25C236.328 361.25 234.109 394.323 249.413 412.398V412.235L249.489 412.391C264.753 394.283 262.454 361.206 262.454 361.206C262.454 361.206 282.855 382.099 303.517 377.272C329.541 371.188 309.564 346.343 309.564 346.343C283.739 374.675 264.976 335.474 264.976 335.474C282.219 320.752 269.74 303.245 269.74 303.245C270.857 288.831 297.994 259.651 325.168 259.644C362.109 259.644 372.903 292.847 372.903 292.847C409.46 266.159 376.358 221.171 336.734 221.222" fill="#D3BC8D"/>
</svg>
