<svg width="500" height="500" viewBox="0 0 500 500" fill="none" xmlns="http://www.w3.org/2000/svg">
<path d="M260.25 298.75C259.25 298.75 258.5 298.75 257.5 298.75C257.25 299 257 299.25 256.75 299.5C257 304.25 257 309 256.75 313.75C257 314 257.25 314.25 257.5 314.5C258.5 314.5 259.25 314.5 260.25 314.5C260.5 314.25 260.75 314 261 313.75C261.5 309 261.5 304.25 261 299.5C260.75 299.25 260.5 299 260.25 298.75Z" fill="#125740"/>
<path d="M243.5 298.75C242.5 298.75 241.75 298.75 240.75 298.75C240.5 299 240.25 299.25 240 299.5C239.5 304.25 239.5 309 240 313.75C240.25 314 240.5 314.25 240.75 314.5C241.75 314.5 242.5 314.5 243.5 314.5C243.75 314.25 244 314 244.25 313.75C244 309 244 304.25 244.25 299.5C243.75 299.25 243.5 299 243.5 298.75Z" fill="#125740"/>
<path d="M251.75 298.75C250.75 298.75 250 298.75 249 298.75C248.75 299 248.5 299.25 248.25 299.5C248.25 304.25 248.25 309 248.25 313.75C248.5 314 248.75 314.25 249 314.5C250 314.5 250.75 314.5 251.75 314.5C252 314.25 252.25 314 252.5 313.75C252.5 309 252.5 304.25 252.5 299.5C252.25 299.25 252 299 251.75 298.75Z" fill="#125740"/>
<path d="M289.75 200C290.5 200 291.25 199.75 292 199.25C292.5 198.75 293 198 293.5 197L296.5 191.25C297 190.5 297.25 189.75 297.25 189.25C297.25 188.25 296.75 187.75 295.5 187.75C294.75 187.75 294 188 293.5 188.5C293 189 292.5 189.75 291.75 190.75L288.75 196.5C288.25 197.25 288 198 288 198.5C288 199.5 288.75 200 289.75 200Z" fill="#125740"/>
<path d="M419.25 245H389C389.75 243.5 390.25 242.25 390.25 240.5C390.25 238.25 387.75 236.75 383.25 236.75C377.75 236.75 375 239 375 241.5C375 243.75 377.5 244.5 390.5 247.5C403.5 250.5 408.25 253.5 408.25 260.5C408.25 266.25 405.75 272.25 400.75 277.25C394.5 283.5 385 287.5 362 287.5C334.5 287.5 326.5 283 326.5 273.5C326.5 270.75 327 267.75 328.75 264.75H359.5C358.5 266.5 358.25 268 358.25 269.75C358.25 272.25 360.5 273.75 365.25 273.75C370.5 273.75 373.5 271.75 373.5 268.5C373.5 265.5 370.75 264.75 357 261.25C344 258 340.25 255.5 340.25 248.5C340.25 243.75 342.75 238 347.5 233.25C354.25 226.5 363.75 223 386.25 223C411.25 223 420.5 227 420.5 236.5C421 239.5 420.5 242 419.25 245ZM295 284C292 281.75 288.5 279.75 284.5 277.5C277 273.5 269.5 271.5 263.25 270.5L279.5 239.75H258.75L267 224H345.5L337.25 239.75H318.5L295 284ZM265.5 313.75C265.75 314 266 314.25 266 314.5C267 314.5 267.75 314.5 268.75 314.5C269 314.25 269.25 314 269.75 313.75C270 312.25 270.25 310.75 270.5 309.5C273.25 309.5 276 309.5 278.75 309.25C287.75 309 296.5 308.75 305.5 308L307 309.75C305 316.5 296.5 324.75 283.25 331.75C271.25 338 257.5 339.75 250.75 339.75C250.75 339.75 250.75 339.75 250.5 339.75C243.75 339.75 230 338 218 331.75C204.75 324.75 196.25 316.75 194.25 309.75L195.75 308C204.75 308.5 213.5 309 222.5 309.25C225.5 309.25 228.75 309.5 231.75 309.5C231.75 311 232 312.25 232.5 313.75C232.75 314 233 314.25 233.5 314.5C234.5 314.5 235.25 314.5 236.25 314.5C236.5 314.25 236.75 314 236.75 313.75C236 309 236 304.5 236.75 299.75C236.5 299.5 236.25 299.25 236.25 299C235.25 299 234.5 299 233.5 299C233.25 299.25 233 299.5 232.5 299.75C232.25 301.25 232 302.5 231.75 304C228.75 304 225.5 304 222.5 304.25C213.5 304.5 204.75 304.75 195.75 305.5L194.25 303.5C194.25 303.25 194.25 303.25 194.25 303C196.25 296.25 204.75 288 218 281C230 274.5 243.75 273 250.5 273C250.5 273 250.5 273 250.75 273C257.75 273 271.25 274.75 283.25 281C296.5 288 305 296.25 307 303C307 303.25 307 303.5 307 303.75L305.5 305.75C296.5 305.25 287.75 304.75 278.75 304.5C276 304.5 273.25 304.25 270.5 304.25C270.5 302.75 270.25 301.25 269.75 300C269.5 299.75 269.25 299.5 268.75 299.25C267.75 299.25 267 299.25 266 299.25C265.75 299.5 265.5 299.75 265.5 300C266.25 304.25 266.25 309 265.5 313.75ZM187.75 224.25H260.75L252.5 239.75H215L210.75 247.25H248.5L240.5 262.25H203L198.75 270H237.5L237.25 270.25C231 271.25 223 273.5 215.5 277.5C210.75 280 206.5 282.75 203 285.5H155L187.75 224.25ZM114.25 287.25C89.2499 287.25 78.9999 281.25 78.9999 270C78.9999 264.25 80.4999 260.25 83.7499 254L87.7499 246.5H120L112 261.75C111 263.75 110.25 265.75 110.25 267.25C110.25 269.5 111.25 271 114.25 271C118.5 271 120.5 268.25 123.25 263L143.75 223.75H181.5L164.25 256.5C159.25 265.75 156.25 270.75 151.5 275.75C144.25 283.5 132.25 287.25 114.25 287.25ZM125.75 182.5H138.25L140.5 192.25L145.5 182.5H156.5L144.5 205H132.5L130.25 194.5L124.75 205H113.75L125.75 182.5ZM188.5 182.5L185.5 188.25H171.75L170 191H182.75L180 196.5H167.25L165.75 199.25H180L177 205H149.5L161.5 182.5H188.5ZM204 182.5L201.25 193L209 182.5H221.75L218.75 193L227 182.5H239.25L219 205H205.5L207.5 196.25L200 205H186.5L190.75 182.5H204ZM248.5 182.5H262.25L262 189.5L269 182.5H281.75L263.75 198L260 205H245.75L249.75 197.5L248.5 182.5ZM307.5 183.75C309.75 184.75 310.75 186.5 310.75 188.5C310.75 190 310.25 192 309.25 194.25C307.75 197.5 306 200 304.5 201.5C301.5 204.5 296.5 205.75 289.25 205.75C284 205.75 280.25 205.25 278 204C275.75 203 274.75 201.25 274.75 199.25C274.75 197.75 275.25 195.75 276.25 193.5C277.75 190.25 279.5 187.75 281 186.25C284 183.25 289 182 296.25 182C301.25 182 305 182.5 307.5 183.75ZM339.5 182.5C342.25 182.5 344.25 183 345.25 184C346 184.75 346.5 186 346.5 187.25C346.5 189.5 345.75 191.25 344.25 193C343.5 193.75 342.5 194.5 341.75 194.75C341 195 339.75 195.5 338.25 195.75C340.5 196.5 341.5 197.5 341.5 198.75C341.5 199.5 341.25 200.5 340.75 201.5L339 205H325L327.25 200.5C327.5 200 327.75 199.5 327.75 199C327.75 198 327.25 197.5 326 197.5H324L320 204.75H306.5L318.5 182.25H339.5V182.5ZM368.75 182.5L363.25 192.75L374.5 182.5H387.25L374.75 193.5L376.25 205H362.75L362 195L356.75 205H342.75L354.75 182.5H368.75ZM473.75 238.25C465.75 211.5 430.75 179.75 380.25 153C335.5 129.5 282.75 121.25 251 121.25C250.75 121.25 250.5 121.25 250.5 121.25H250C249.75 121.25 249.75 121.25 249.5 121.25C217.5 121.25 164.5 129.5 120 153C69.2499 179.5 34.4999 211.25 26.2499 238.25C25.4999 242 25.2499 246 25.2499 250C25.2499 254 25.4999 258 26.2499 261.75C34.2499 288.5 69.2499 320.25 119.75 347C164.75 370.75 217.75 379 249.75 378.75H250.25C250.5 378.75 250.5 378.75 250.75 378.75C282.5 378.75 335.5 370.5 380 347C430.5 320.5 465.5 288.75 473.5 261.75C474.25 258 474.5 254 474.5 250C474.75 246 474.25 242 473.75 238.25Z" fill="#125740"/>
<path d="M331.5 191.75L332 190.75C332.25 190.25 332.25 189.75 332.25 189.5C332.25 188.75 331.75 188.5 330.75 188.5H328.75L325.75 193.75H328.25C329.75 193.5 330.75 193 331.5 191.75Z" fill="#125740"/>
<path d="M215.5 277.75C223.25 273.75 231 271.5 237.25 270.5L237.5 270H198.75L203 262.25H240.75L248.75 247.25H211L215.25 239.75H252.75L261 224.25H187.75L155 285.75H202.75C206.5 283 210.75 280.25 215.5 277.75ZM181.5 224.25H143.75L123.25 263.5C120.5 268.75 118.25 271.5 114.25 271.5C111.5 271.5 110.25 270 110.25 267.75C110.25 266.25 111 264 112 262.25L120 247H87.75L83.75 254.5C80.25 260.75 79 264.75 79 270.5C79 281.75 89.25 287.75 114.25 287.75C132.25 287.75 144.25 284 151.5 276.75C156.5 271.75 159.5 266.75 164.25 257.5L181.5 224.25ZM386.75 222.75C364 222.75 354.75 226.25 348 233C343.25 237.75 340.75 243.5 340.75 248.25C340.75 255.25 344.5 257.75 357.5 261C371.25 264.5 374 265.25 374 268.25C374 271.5 371 273.5 365.75 273.5C361 273.5 358.75 272 358.75 269.5C358.75 267.75 359.25 266.25 360 264.5H329.25C327.75 267.75 327 270.5 327 273.25C327 282.75 335 287.25 362.5 287.25C385.75 287.25 395 283.25 401.25 277C406.25 272 408.75 266.25 408.75 260.25C408.75 253.25 404 250.25 391 247.25C378 244.25 375.5 243.25 375.5 241.25C375.5 238.75 378.25 236.5 383.75 236.5C388.25 236.5 390.75 238 390.75 240.25C390.75 242 390.25 243.25 389.5 244.75H419.75C421 241.75 421.5 239.25 421.5 236C421 226.75 412 222.75 386.75 222.75ZM261 313.75C260.75 314 260.5 314.25 260.25 314.5C259.25 314.5 258.5 314.5 257.5 314.5C257.25 314.25 257 314 256.75 313.75C257 309 257 304.25 256.75 299.5C257 299.25 257.25 299 257.5 298.75C258.5 298.75 259.25 298.75 260.25 298.75C260.5 299 260.75 299.25 261 299.5C261.5 304.25 261.5 309 261 313.75ZM252.5 313.75C252.25 314 252 314.25 251.75 314.5C250.75 314.5 250 314.5 249 314.5C248.75 314.25 248.5 314 248.25 313.75C248.25 309 248.25 304.25 248.25 299.5C248.5 299.25 248.75 299 249 298.75C250 298.75 250.75 298.75 251.75 298.75C252 299 252.25 299.25 252.5 299.5C252.75 304.25 252.75 309 252.5 313.75ZM244 313.75C243.75 314 243.5 314.25 243.25 314.5C242.25 314.5 241.5 314.5 240.5 314.5C240.25 314.25 240 314 239.75 313.75C239.25 309 239.25 304.25 239.75 299.5C240 299.25 240.25 299 240.5 298.75C241.5 298.75 242.25 298.75 243.25 298.75C243.5 299 243.75 299.25 244 299.5C243.75 304.25 243.75 309 244 313.75ZM268.75 299C269 299.25 269.25 299.5 269.75 299.75C270 301.25 270.25 302.75 270.5 304C273.25 304 276 304 278.75 304.25C287.75 304.5 296.5 304.75 305.5 305.5L307 303.5C307 303.25 307 303 307 302.75C305 296 296.5 287.75 283.25 280.75C271.25 274.5 257.5 272.75 250.75 272.75C250.75 272.75 250.75 272.75 250.5 272.75C243.75 272.75 230 274.5 218 280.75C204.75 287.75 196.25 296 194.25 302.75C194.25 303 194.25 303 194.25 303.25L195.75 305.25C204.75 304.75 213.5 304.25 222.5 304C225.5 304 228.75 303.75 231.75 303.75C231.75 302.25 232 301 232.5 299.5C232.75 299.25 233 299 233.5 298.75C234.5 298.75 235.25 298.75 236.25 298.75C236.5 299 236.75 299.25 236.75 299.5C236 304.25 236 308.75 236.75 313.5C236.5 313.75 236.25 314 236.25 314.25C235.25 314.25 234.5 314.25 233.5 314.25C233.25 314 233 313.75 232.5 313.5C232.25 312 232 310.75 231.75 309.25C228.75 309.25 225.5 309.25 222.5 309C213.5 308.75 204.75 308.5 195.75 307.75L194.25 309.5C196.25 316.25 204.75 324.5 218 331.5C230 338 243.75 339.5 250.5 339.5C250.5 339.5 250.5 339.5 250.75 339.5C257.75 339.5 271.25 337.75 283.25 331.5C296.5 324.5 305 316.25 307 309.5L305.5 307.75C296.5 308.25 287.75 308.75 278.75 309C276 309 273.25 309.25 270.5 309.25C270.5 310.75 270.25 312.25 269.75 313.5C269.5 313.75 269.25 314 268.75 314.25C267.75 314.25 267 314.25 266 314.25C265.75 314 265.5 313.75 265.5 313.5C266.25 308.75 266.25 304.25 265.5 299.5C265.75 299.25 266 299 266 298.75C266.75 299 267.75 299 268.75 299ZM474.75 250C474.75 254 474.5 258 473.75 261.75C465.75 288.5 430.75 320.25 380.25 347C335.5 370.5 282.75 378.75 251 378.75C250.75 378.75 250.75 378.75 250.5 378.75H250C218.25 378.75 165 370.5 120 347C69.5 320.5 34.5 288.75 26.5 261.75C25.75 258 25.5 254 25.5 250C25.5 246 25.75 242 26.5 238.25C34.5 211.25 69.25 179.5 120 153C164.75 129.5 217.5 121.25 249.25 121.25C249.5 121.25 249.5 121.25 249.75 121.25H250.25C250.5 121.25 250.75 121.25 250.75 121.25C282.5 121.25 335.25 129.5 380 153C430.5 179.5 465.5 211.25 473.5 238.25C474.25 242 474.75 246 474.75 250ZM486.25 235.5L486 234.75C477 204.25 440.5 170.25 386 141.5C339.25 117 284 108.25 250.75 108.25C250.5 108.25 250.25 108.25 250.25 108.25H249.75C249.5 108.25 249.5 108.25 249.25 108.25C216 108.25 160.75 117 114 141.5C59.25 170.25 23 204.25 14 234.75L13.75 235.5C13 240.25 12.5 245 12.5 250C12.5 255 13 259.75 13.75 264.5L14 265.25C23 295.75 59.5 329.75 114 358.5C160.75 383 216 391.75 249.25 391.75C249.5 391.75 249.75 391.75 249.75 391.75H250.25C250.5 391.75 250.5 391.75 250.75 391.75C284 391.75 339.25 383 386 358.5C440.5 329.75 477 295.75 486 265.25L486.25 264.5C487.25 259.75 487.5 254.75 487.5 250C487.5 245 487 240.25 486.25 235.5ZM130.25 194.75L132.5 205.25H144.25L156.25 182.75H145.25L140.25 192.5L138.25 182.5H125.75L113.75 205H124.75L130.25 194.75ZM345.75 224.25H267.25L259 240H279.75L263.5 270.75C269.75 272 277.25 274 284.75 277.75C288.5 279.75 292 282 295.25 284.25L318.75 240.25H337.5L345.75 224.25ZM356.75 205.25L362 195.25L362.75 205.25H376.25L374.75 193.75L387.25 182.75H374.5L363.25 193L368.75 182.75H355L343 205.25H356.75ZM176.75 205.25L179.75 199.5H165.5L167 196.75H180L183 191.25H170L171.5 188.5H185.25L188.25 182.75H161.5L149.5 205.25H176.75ZM259.75 205.25L263.5 198.25L281.5 182.75H268.75L261.75 189.75L262 182.75H248.25L249.25 198L245.25 205.5H259.75V205.25ZM288.75 196.25L291.75 190.5C292.25 189.5 292.75 188.75 293.5 188.25C294 187.75 294.75 187.5 295.5 187.5C296.75 187.5 297.25 188 297.25 189C297.25 189.5 297 190.25 296.5 191L293.5 196.75C293 197.75 292.5 198.5 292 199C291.5 199.5 290.75 199.75 289.75 199.75C288.5 199.75 288 199.25 288 198.25C288 198 288.25 197.25 288.75 196.25ZM276.25 193.5C275.25 195.75 274.75 197.5 274.75 199.25C274.75 201.5 275.75 203 278 204C280.25 205 284 205.75 289.25 205.75C296.5 205.75 301.5 204.25 304.5 201.5C306 200 307.75 197.5 309.25 194.25C310.25 192 310.75 190.25 310.75 188.5C310.75 186.25 309.75 184.75 307.5 183.75C305.25 182.75 301.5 182 296.25 182C289 182 284 183.5 281 186.25C279.5 188 277.75 190.25 276.25 193.5ZM200.25 205.25L207.75 196.5L205.75 205.25H219.25L239.5 182.75H227.25L219 193.25L222 182.75H209.25L201.5 193.25L204.25 182.75H191.25L187 205.25H200.25ZM329 188.25H331C332 188.25 332.5 188.5 332.5 189.25C332.5 189.5 332.5 190 332.25 190.5L331.75 191.5C331 192.75 330.25 193.5 329 193.5H326.5L329 188.25ZM320 205.25L324 198H326C327.25 198 327.75 198.5 327.75 199.5C327.75 200 327.5 200.5 327.25 201L325 205.5H338.75L340.5 202C341 201 341.25 200 341.25 199.25C341.25 197.75 340.25 196.75 338 196.25C339.5 196 340.5 195.75 341.5 195.25C342.5 194.75 343.25 194.25 344 193.5C345.5 192 346.25 190 346.25 187.75C346.25 186.25 345.75 185.25 345 184.5C344 183.5 342 183 339.25 183H318.25L306.25 205.5H320V205.25Z" fill="white"/>
</svg>
