<svg width="500" height="500" viewBox="0 0 500 500" fill="none" xmlns="http://www.w3.org/2000/svg">
<path d="M70 250.174C70 349.332 150.668 430 249.826 430C348.98 430 429.652 349.332 429.652 250.174C429.652 151.02 348.98 70.352 249.826 70.352C150.668 70.352 70 151.02 70 250.174Z" fill="black"/>
<path d="M249.826 426.056C346.957 426.056 425.704 347.309 425.704 250.174C425.704 153.043 346.957 74.296 249.826 74.296C152.691 74.296 73.944 153.043 73.944 250.174C73.944 347.309 152.691 426.056 249.826 426.056Z" fill="#A5ACAF"/>
<path d="M249.826 397.325C330.854 397.325 396.544 331.635 396.544 250.607C396.544 169.579 330.854 103.885 249.826 103.885C168.794 103.885 103.104 169.579 103.104 250.607C103.104 331.635 168.794 397.325 249.826 397.325Z" fill="white"/>
<path d="M250.587 250.805C252.282 190.709 309.049 176.601 323.311 177.895C288.152 175.986 253.455 161.129 250.773 105.531C246.538 157.233 225.791 171.933 177.98 178.069C212.131 179.8 246.7 193.314 250.587 250.805Z" fill="#FFB612"/>
<path d="M323.513 325.187C325.208 265.091 380.975 250.263 395.242 251.557C359.966 250.255 325.989 233.488 323.311 177.895C319.076 229.602 298.398 244.669 250.587 250.805C284.738 252.536 319.622 267.697 323.513 325.187Z" fill="#C60C30"/>
<path d="M251.468 396.714C253.159 336.61 309.246 323.893 323.512 325.187C288.353 323.274 253.268 306.406 250.586 250.805C246.351 302.512 226.219 318.044 178.412 324.176C212.559 325.915 247.576 339.227 251.468 396.714Z" fill="#00539B"/>
<path d="M209.708 237.958L215.436 237.897L215.46 240.66C216.322 239.143 216.839 238.237 218.789 237.8H220.213V244.502C215.282 244.154 215.61 245.881 215.545 247.208V259.962H209.708V237.958ZM235.515 245.134L230.402 245.11C230.402 244.58 230.414 244.115 230.317 243.71C230.175 243.144 229.419 242.606 228.65 242.598C227.744 242.598 227.044 242.889 226.741 243.767C226.377 244.827 226.547 246.388 229.305 246.7L230.709 247.048C232.274 247.574 233.787 248.011 234.964 250.256C235.162 250.64 235.195 250.766 235.51 251.866C236.177 254.147 235.737 255.887 234.992 257.246C234.539 258.059 233.427 259.07 233.03 259.317C230.866 260.652 227.946 260.793 225.292 259.988C223.99 259.592 222.57 258.597 221.866 257.229C221.138 255.817 221.122 254.66 221.029 252.751L225.972 252.719C225.871 253.492 226.348 254.386 227.113 254.677C227.886 254.98 229.815 254.993 230.155 254.127C230.394 253.516 230.547 253.185 230.017 252.388C229.05 250.928 226.983 250.689 225.167 250.232C221.919 249.411 221.13 246.264 221.272 243.877C221.341 242.748 221.543 241.446 222.255 240.568C223.756 238.711 224.411 238.804 225.309 238.372C228.298 236.92 232.016 237.951 233.998 239.962C235.11 241.082 235.474 243.145 235.515 245.135V245.134ZM140.702 238.088H136.649L134.445 238.104C134.392 237.137 134.247 235.883 133.608 235.297C132.661 234.435 130.518 234.913 129.951 236.11C128.924 238.262 130.238 240.284 133.547 241.34L134.457 241.793C137.584 243.318 138.449 244.066 139.618 245.717C139.97 246.215 140.658 247.513 140.937 249.099C141.532 252.489 140.678 254.592 139.914 256.449C139.914 256.449 139.623 257.327 138.818 258.075C135.534 261.141 130.983 261.275 127.609 259.673C126.056 258.929 124.858 258.209 124.005 256.291C123.164 254.41 122.974 252.703 123.216 249.928L129.514 249.892C129.397 250.774 129.656 253.003 130.246 253.621C130.833 254.236 133.219 254.834 134.137 253.208C134.461 252.638 134.541 250.158 133.538 249.204C131.649 247.388 130.019 247.206 127.794 245.814C124.619 243.832 122.932 240.276 123.134 236.903C123.231 235.305 123.668 234.193 124.445 232.793C125.222 231.41 126.322 230.148 127.912 229.452C132.143 227.595 137.312 228.655 139.59 232.676C140.189 233.728 140.787 235.297 140.702 238.088ZM143.918 237.975V235.944L149.816 232.708L149.84 238.047L152.085 237.998L152.109 243.204L149.84 243.168V251.832C149.84 253.017 149.626 253.49 152.004 253.454L152 260.047C149.193 259.978 143.878 260.933 143.853 254.732L143.809 243.054L141.609 243.127L141.585 238.047L143.919 237.974L143.918 237.975ZM185.589 229.145L191.531 229.161V260.153H185.589V229.144V229.145ZM198.149 253.738C198.157 255.712 202.469 256.116 202.574 253.629V253.002L207.428 252.978L207.436 255.571C207.485 257.294 206.769 259.167 203.856 260.17C200.766 261.133 198.836 260.554 197.028 260.17C194.654 259.3 193.501 257.411 193.392 254.75V244.015C193.283 242.001 194.403 240.245 196.349 238.967C199.666 237.519 201.478 237.907 203.97 238.769C206.344 240.063 207.416 241.665 207.441 243.902V250.714H198.13L198.15 253.74L198.149 253.738ZM198.359 246.113C197.623 241.785 203.658 242.282 202.752 246.129L198.359 246.113ZM174.506 253.738C174.518 255.712 178.83 256.116 178.939 253.629V253.002L183.789 252.978L183.801 255.571C183.841 257.294 183.13 259.167 180.217 260.17C177.127 261.133 175.197 260.554 173.389 260.17C171.015 259.3 169.862 257.411 169.753 254.75V244.015C169.644 242.001 170.768 240.245 172.71 238.967C176.027 237.519 177.843 237.907 180.327 238.769C182.705 240.063 183.773 241.665 183.802 243.902V250.714H174.515L174.507 253.74L174.506 253.738ZM174.72 246.113C173.984 241.785 180.019 242.282 179.113 246.129L174.72 246.113ZM158.407 253.738C158.419 255.712 162.731 256.116 162.84 253.629V253.002L167.69 252.978L167.702 255.571C167.746 257.294 167.031 259.167 164.118 260.17C161.028 261.133 159.094 260.554 157.29 260.17C154.916 259.3 153.763 257.411 153.654 254.75V244.015C153.545 242.001 154.669 240.245 156.611 238.967C159.924 237.519 161.744 237.907 164.228 238.769C166.606 240.063 167.674 241.665 167.703 243.902V250.714H158.416L158.408 253.74L158.407 253.738ZM158.621 246.113C157.885 241.785 163.92 242.282 163.014 246.129L158.621 246.113Z" fill="black"/>
</svg>
