<svg width="500" height="500" viewBox="0 0 500 500" fill="none" xmlns="http://www.w3.org/2000/svg">
<path d="M289.196 108.898L265.835 133.368C304.102 117.478 387.547 90.196 387.547 90.196L360.811 116.334C433.788 94.74 489.244 84.509 489.244 84.509C489.244 84.509 473.174 121.884 449.167 159.312C453.811 158.811 484.124 155.281 484.124 155.281C484.124 155.281 456.826 200.472 425.305 233.045L442.947 237.432C442.947 237.432 415.459 277.021 379.181 309.335C327.011 355.799 300.166 348.661 300.166 348.661C261.438 376.693 230.398 362.487 230.398 362.487C230.398 362.487 243.808 328.662 229.953 325.071C217.464 321.827 198.464 331.586 196.092 335.5C193.627 344.035 183.243 365.71 172.517 378.829C151.949 403.977 129.142 414.257 129.142 414.257C129.142 414.257 111.177 398.936 111.059 372.855C111.059 372.855 98.72 385.918 78.632 390.187C64.571 393.176 45.381 390.748 25.722 374.345C12.522 363.334 10 326.33 10 326.33C10 326.33 22.404 302.648 46.327 281.894C41.032 277.354 37.787 271.642 36.768 268.116C100.356 240.378 100.4 213.901 150.954 181.712C200.76 150 232.059 135.418 289.196 108.896" fill="white"/>
<path d="M258.221 131.36L238.243 152.287C277.698 134.833 361.018 106.486 361.018 106.486L336.837 130.128C422.266 103.695 476.449 94.7401 476.449 94.7401C476.449 94.7401 458.742 134.179 435.179 167.681C446.589 166.586 470.386 163.824 470.386 163.824C470.386 163.824 446.588 203.671 411.418 237.423C415.326 237.997 431.287 241.636 431.287 241.636C431.287 241.636 410.076 273.09 373.212 305.351C326.155 346.527 305.279 341.652 305.279 341.652C305.279 341.652 305.732 340.044 305.687 337.544C305.655 336.163 305.36 334.91 305.347 334.809C269.121 368.88 238.942 357.384 238.942 357.384C238.942 357.384 252.34 324.965 231.788 318.421C215.868 313.356 191.48 326.378 189.536 333.354C187.422 340.94 177.31 361.992 167.282 374.328C149.887 395.732 130.632 405.499 130.632 405.499C130.632 405.499 113.127 392.04 119.198 352.649C120.524 344.066 118.822 340.713 117.884 339.271C115.01 334.876 92.615 339.671 87.151 352.156C83.295 360.974 105.549 368.426 105.549 368.426C105.549 368.426 95.279 379.748 77.33 383.416C66.042 385.722 48.561 384.987 30.208 369.105C19.348 359.71 17.097 327.917 17.097 327.917C17.097 327.917 30.511 303.358 56.641 282.148C51.484 278.775 47.567 273.06 46.577 270.814C99.228 248.15 106.447 216.102 165.884 180.29C193.586 163.6 222.763 147.176 258.221 131.358" fill="#004C54"/>
<path d="M398.124 241.939C400.234 242.375 408.883 243.938 413.701 245.934C395.614 275.251 341.557 332.818 311.345 335.185C311.005 330.136 309.045 325.83 306.677 322.861C295.34 343.57 260.723 356.282 246.351 352.957C263.803 289.064 189.763 313.409 184.085 330.947C169.345 376.49 131.927 397.918 131.927 397.918C131.927 397.918 119.968 384.302 125.097 353.636C128.88 331.028 114.568 331.731 114.568 331.731C108.861 331.468 87.2061 334.078 80.3751 349.181C74.8661 361.343 94.1491 369.882 94.1491 369.882C94.1491 369.882 66.3061 392.098 34.0931 364.562C26.1911 357.808 23.2531 329.291 23.2531 329.291C38.7451 303.626 59.1631 287.303 67.6231 281.236C58.6541 277.799 55.8621 273.145 55.8621 273.145C99.1121 253.324 116.075 220.38 152.895 195.898C193.47 168.92 224.53 155.671 224.53 155.671L212.809 170.414C212.809 170.414 222.622 166.221 226.902 164.125C265.541 145.173 331.008 124.52 331.008 124.52L310.593 144.284C310.593 144.284 344.438 132.699 387.082 123.595C409.792 118.744 457.242 108.763 457.242 108.763C457.242 108.763 446.095 141.513 422.415 174.76C436.719 173.754 452.138 172.914 452.138 172.914C452.138 172.914 435.559 206.242 398.125 241.937L398.124 241.939ZM149.859 263.513C151.827 266.793 149.871 271.567 145.486 274.185C141.101 276.798 135.952 276.261 133.979 272.977C133.676 272.476 133.494 271.931 133.373 271.369C132.54 271.959 131.68 272.504 130.79 273.001C130.976 273.639 131.239 274.265 131.586 274.847C134.375 279.48 141.484 280.348 147.474 276.774C153.464 273.207 156.059 266.559 153.274 261.918C151.863 259.575 149.341 258.21 146.423 257.883C145.752 258.719 145 259.672 144.18 260.682C146.605 260.71 148.747 261.659 149.859 263.514V263.513Z" fill="black"/>
<path d="M271.546 274.681C232.01 269.878 202.53 290.672 192.381 303.642C198.1 292.102 206.539 284.662 206.539 284.662C204.506 285.664 202.497 286.815 200.509 288.087C192.365 292.773 159.013 309.701 130.05 291.718C128.251 290.603 126.74 289.561 125.43 288.584C135.061 293.625 150.953 294.053 157.549 287.566C134.455 293.52 130.352 282.981 129.859 276.426C128.368 276.709 125.971 276.527 124.18 276.111C124.18 276.111 127.959 274.507 129.834 273.538C130.157 273.372 130.469 273.183 130.788 273.001C130.974 273.639 131.237 274.265 131.584 274.847C134.373 279.48 141.482 280.348 147.472 276.774C153.462 273.207 156.057 266.559 153.272 261.918C151.861 259.575 149.339 258.21 146.421 257.883C148.498 255.472 152.496 250.14 158.667 245.705C154.124 251.15 152.673 254.834 152.499 255.298C155.284 255.734 157.725 256.926 158.901 259.135C161.217 263.465 159.641 266.866 158.8 268.607L158.788 268.603C157.244 271.867 154.374 275.086 150.511 277.522C145.281 280.822 139.55 281.856 135.334 280.669C135.334 280.669 136.09 282.046 137.314 282.858C139.351 284.219 145.369 286.203 154.071 282.272C157.296 280.814 159.717 279.158 161.564 277.477C168.108 272.569 168.819 266.292 171.155 260.783C176.664 247.773 188.041 236.507 201.298 231.83C188.696 233.365 173.285 244.719 173.734 239.65C173.944 237.291 180.702 214.813 222.097 197.613C222.853 197.338 223.601 197.064 224.377 196.793C224.377 196.793 204.278 199.903 173.989 217.951C162.078 225.052 151.376 234.867 145.96 242.324C146.198 237.424 148.846 232.674 150.454 228.93C139.182 236.185 141.991 246.283 133.499 256.126C129.781 260.089 125.864 263.881 121.709 266.58C97.705 282.204 74.009 272.481 74.009 272.481C106.177 255.104 105.215 251.19 126.41 228.728C150.171 203.555 164.77 190.589 204.758 170.991C202.143 174.36 191.336 183.836 189.003 186.53C189.003 186.53 197.026 182.24 212.219 175.034C266.103 149.466 305.885 139.945 305.885 139.945C305.885 139.945 296.031 146.994 289.221 151.509C279.982 157.637 271.801 163.558 271.801 163.558C271.801 163.558 272.161 163.396 272.828 163.114C350.396 138.818 414.469 146.416 414.469 146.416C372.536 150.455 338.627 158.421 320.633 166.637C320.633 166.637 345.477 162.372 358.108 162.372C370.463 162.372 380.568 163.572 380.568 163.572C301.533 175.896 259.022 198.726 248.659 204.873C244.347 206.707 242.087 207.85 242.087 207.85C242.087 207.85 254.976 203.815 271.313 199.767C300.062 195.36 342.132 197.731 382.722 209.772C382.722 209.772 354.58 208.282 342.281 208.556C305.554 209.372 267.704 224.131 267.704 224.131C291.611 218.108 317.817 222.544 317.817 222.544C307.628 223.13 282.573 229.819 270 234.993C251.885 242.449 233.576 253.069 220.235 262.876C214.839 266.075 211.954 268.184 211.954 268.184C211.954 268.184 218.801 264.508 230.324 260.065C249.967 253.461 283.234 247.568 320.187 259.972C263.235 248.634 218.243 275.293 218.243 275.293C250.859 264.641 271.545 274.683 271.545 274.683L271.546 274.681ZM136.485 272.221C135.523 271.51 135.111 270.67 134.941 270.185C136.081 269.28 137.16 268.315 138.186 267.321C138.073 269.175 138.497 271.53 140.781 273.255C140.781 273.255 138.178 273.469 136.485 272.221Z" fill="white"/>
<path d="M165.65 246.156C162.7 234.777 182.645 212.303 220.581 198.158C220.662 198.126 221.676 197.762 222.101 197.613C180.706 214.812 173.948 237.291 173.738 239.65C173.289 244.719 188.7 233.365 201.302 231.83C188.045 236.507 176.668 247.773 171.159 260.783C168.823 266.293 168.112 272.57 161.568 277.477C167.36 272.214 167.299 266.769 167.299 266.769C167.299 266.769 164.256 268.603 161.657 268.886C160.8 268.979 159.782 268.833 158.804 268.607C160.126 266.022 160.101 264.184 160.126 263.679C164.147 254.51 174.187 246.015 174.187 246.015C174.187 246.015 166.762 250.43 165.651 246.156H165.65ZM382.725 209.77C342.134 197.729 300.064 195.358 271.316 199.765C281.081 197.354 292.074 194.93 302.292 193.363C349.665 186.08 415.092 193.1 415.092 193.1C415.092 193.1 412.065 202.717 397.842 218.305C384.432 233.012 379.396 236.886 379.396 236.886C302.325 220.475 241.594 250.22 220.238 262.875C233.58 253.068 251.889 242.448 270.003 234.992C282.577 229.818 307.631 223.129 317.82 222.543C317.82 222.543 291.614 218.108 267.707 224.13C267.707 224.13 305.557 209.371 342.284 208.555C354.583 208.28 382.725 209.771 382.725 209.771V209.77ZM231.731 287.409C209.154 293.003 199.365 299.995 190.211 308.615C190.866 306.886 191.601 305.23 192.381 303.643C202.53 290.673 232.01 269.879 271.546 274.682C271.546 274.682 250.861 264.64 218.244 275.292C218.244 275.292 263.236 248.633 320.188 259.971C283.235 247.566 249.968 253.46 230.325 260.064C259.898 248.649 320.273 232.153 374.981 259.559C371.727 266.535 363.494 276.9 350.359 289.821C337.85 302.121 329.54 305.663 327.374 306.838L326.849 307.113C322.383 290.225 285.215 274.149 231.732 287.41L231.731 287.409ZM414.472 146.415C414.472 146.415 350.399 138.817 272.831 163.113C278.259 160.815 305.472 149.84 347.578 142.028C388.068 134.519 423.74 131.643 423.74 131.643C423.74 131.643 415.697 156.606 395.214 176.382C380.846 177.812 345.166 179.323 314.457 185.402C281.901 191.849 259.163 200.424 248.662 204.871C259.025 198.723 301.535 175.893 380.571 163.57C380.571 163.57 370.467 162.37 358.111 162.37C345.481 162.37 320.636 166.635 320.636 166.635C338.63 158.419 372.539 150.454 414.472 146.414V146.415ZM201.628 308.833C201.628 308.833 221.905 289.065 266.958 297.018C284.236 300.068 293.791 309.18 293.791 309.18C286.088 322.57 270.854 329.118 270.854 329.118C270.854 329.118 271.824 307.811 237.983 302.374C215.107 298.698 201.628 308.833 201.628 308.833ZM109.154 284.246C109.154 284.246 138.452 321.238 185.138 302.851C182.992 306.64 182.046 310.824 180.648 315.76C169.865 365.887 133.53 387.606 133.53 387.606C126.914 372.596 130.616 358.091 131.744 352.658C134.306 340.282 128.361 331.068 128.361 331.068C152.264 332.203 128.83 361.96 137.709 374.918C153.771 365.571 163.459 332.692 165.851 320.949C166.017 320.509 163.584 318.78 161.615 318.057C138.537 310.641 99.842 316.991 85.853 325.449C42.041 351.947 83.028 370.123 83.028 370.123C83.028 370.123 56.05 379.135 40.606 354.758C36.819 348.295 35.865 336.509 35.037 327.299C51.099 300.127 76.347 289.326 83.36 284.495C89.443 286.143 100.464 286.902 109.154 284.245V284.246ZM87.971 297.079C84.536 302.225 91.766 301.199 95.113 300.205C97.825 299.397 110.039 295.851 110.039 295.851C103.237 295.201 100.638 293.771 98.136 291.723C92.32 294.736 87.971 297.079 87.971 297.079Z" fill="#A5ACAF"/>
</svg>
