<svg width="500" height="500" viewBox="0 0 500 500" fill="none" xmlns="http://www.w3.org/2000/svg">
<path d="M489.054 196.69H307.393L249.526 23.638L191.654 196.69H9.99902L158.833 303.244L101.698 476.395L249.526 370.798L397.365 476.192L340.213 303.25L489.053 196.691" fill="white"/>
<path d="M249.527 44.232L196.301 203.15H30.0969L166.45 300.759L114.01 459.672L249.554 362.871L385.054 459.672L332.592 300.759L468.95 203.15H302.746L249.526 44.232" fill="#002244"/>
<path d="M249.527 88.031L206.726 216.751H72.1001L182.549 295.817L140.073 424.531L249.857 346.13L358.975 424.531L316.499 295.822L426.954 216.751H292.322L249.527 88.031Z" fill="white"/>
<path d="M249.527 125.887L215.887 227.575H109.545L196.79 290.038L163.227 391.726L249.966 329.785L335.82 391.726L302.251 290.043L389.502 227.574H283.16L249.525 125.886" fill="#002244"/>
</svg>
