<svg width="500" height="500" viewBox="0 0 500 500" fill="none" xmlns="http://www.w3.org/2000/svg">
<g clip-path="url(#clip0_306_138)">
<path d="M226.6 276.6C233 283.4 242.4 293 249.5 299.8C247.9 289.6 247.5 279.1 249.6 269.4C251 262.8 253.4 257.1 256.3 252.2L250.3 238.9C248.9 240.9 246.5 244.7 244.1 248.4C244.2 248.4 235.6 262.2 226.6 276.6Z" fill="#FF3C00"/>
<path d="M254.9 322.6C248.9 319.1 243 314.4 237.1 308.1C237 308 227.1 298.6 218.5 290C214.2 297 211.3 301.7 209.5 304.5L228.6 317.1C232.7 319.8 237.3 323 237.5 329C237.7 335.2 232.3 342.4 230.6 344.7C228.4 347.7 221.3 356.1 212 350.2C212 350.2 198.6 341.9 189.2 336.3L181.9 347C188.8 348.1 226.4 354.1 257.2 359C255.6 347.1 251.7 336.2 249.3 326.7C253.4 335.6 257.8 347 260.2 359.4C262.3 359.7 264.4 360.1 266.4 360.4C265.8 357.2 265.1 354.4 264.5 351.9C263.5 346.8 259 335.9 254.9 322.6Z" fill="#FF3C00"/>
<path d="M280.8 228.6C291.8 222.7 298.6 219.4 316 217.2C315.9 217.2 320.3 216.6 320.3 216.6C323.3 216.2 328.9 215 330.6 212C331.5 210.3 331.9 208.1 331.8 205.4C313.2 209.3 293.8 213.9 277 220.8C271.2 222.9 266.6 225.9 262.1 228.8C263.4 231.7 265 235.2 266.8 239.2C271.2 234.9 275.6 231.9 278.9 229.9C279.5 229.4 280.8 228.6 280.8 228.6Z" fill="#FF3C00"/>
<path d="M181.7 424.7C163.2 423.9 141.5 416.2 125.9 408.2C118.3 403.8 100.2 394.3 92.8999 393.9C101.2 395.7 118.6 405.5 124.8 409.6C138.2 416.9 160.7 427.1 181.7 427.9C232.2 431.1 260.4 403.6 261.9 375.2C260.5 375 259.1 374.7 257.7 374.5C253.6 410.6 215.4 427.8 181.7 424.7Z" fill="#311D00"/>
<path d="M257.4 359C258.4 359.2 259.4 359.3 260.4 359.5C258 347 253.6 335.7 249.5 326.8C251.8 336.2 255.7 347.1 257.4 359Z" fill="#311D00"/>
<path d="M143.5 308.3C138.1 308.3 133.1 310.3 129.4 314.1C121.2 322.5 121.8 336.9 130.7 346.2C135.2 351 141.4 353.7 147.5 353.8C149.7 353.8 151.9 353.5 153.9 352.8L167.4 332.8C167.3 326.8 164.9 320.7 160.3 315.9C155.8 311.1 149.6 308.3 143.5 308.3Z" fill="#311D00"/>
<path d="M115.2 367.3C134.1 391.6 167.5 391.7 184.3 373.9C177.2 377.4 147.3 397 115.2 367.3Z" fill="#311D00"/>
<path d="M207.1 386.6C208.1 388.9 210.4 390.5 213 390.5C214.9 390.5 216.5 389.7 217.7 388.4C221.3 386.9 223.8 383.4 223.8 379.2C223.8 373.6 219.3 369.2 213.8 369.1C208.3 369.1 203.8 373.6 203.8 379.1C203.8 382.1 205.1 384.8 207.1 386.6ZM213 389.3C210 389.3 207.5 386.8 207.5 383.8C207.5 380.8 209.9 378.3 213 378.3C216 378.3 218.5 380.8 218.5 383.8C218.4 386.8 216 389.3 213 389.3ZM217.3 378.2C215.9 376.6 212.3 375.9 210.3 377.3C209.4 377.9 208.4 377.1 209.6 375.9C211.9 373.9 216.2 374 218.1 376.9C219.1 378.4 218.1 379.4 217.3 378.2ZM214.1 370.9C220.6 370.9 225.2 379.3 219.7 384.9C222.1 379.8 220.1 373.4 213.9 373.1C207.4 372.8 205.3 379.3 206.4 382.7C204.2 380.7 204.9 371 214.1 370.9Z" fill="#311D00"/>
<path d="M209.6 375.9C208.4 377.1 209.4 377.8 210.3 377.3C212.3 375.9 215.9 376.7 217.3 378.2C218.1 379.4 219.1 378.4 218.1 376.9C216.2 374 211.9 373.9 209.6 375.9Z" fill="white"/>
<path d="M213.9 373.1C220.1 373.4 222.1 379.8 219.7 384.9C225.1 379.3 220.6 370.9 214.1 370.9C205 370.9 204.2 380.7 206.4 382.7C205.2 379.4 207.4 372.9 213.9 373.1Z" fill="white"/>
<path d="M218.4 383.8C218.4 380.8 216 378.3 212.9 378.3C209.9 378.3 207.4 380.8 207.4 383.8C207.4 386.9 209.8 389.3 212.9 389.3C216 389.3 218.4 386.8 218.4 383.8ZM212.9 388.1C210.5 388.1 208.5 386.2 208.5 383.7C208.5 381.3 210.5 379.3 212.9 379.3C215.3 379.3 217.3 381.2 217.3 383.7C217.3 386.1 215.3 388.1 212.9 388.1Z" fill="white"/>
<path d="M212.9 379.4C210.5 379.4 208.5 381.3 208.5 383.8C208.5 386.2 210.5 388.2 212.9 388.2C215.3 388.2 217.3 386.3 217.3 383.8C217.3 381.3 215.3 379.4 212.9 379.4ZM209.7 383.9C209.8 383.3 210.1 383.6 210.2 384C211.4 385.9 214.7 386 215.7 384.6C216.2 383.9 216.2 384.9 216.2 384.9C214.1 389 209.4 386.4 209.7 383.9Z" fill="#311D00"/>
<path d="M215.7 384.6C214.7 386.1 211.4 385.9 210.2 384C210.1 383.6 209.8 383.3 209.7 383.9C209.4 386.4 214.1 389 216.2 384.9C216.2 384.9 216.2 383.9 215.7 384.6Z" fill="white"/>
<path d="M122.5 383.6C120 385.4 118.9 388.9 119.4 392.4C118.3 394.6 119 397.8 121.3 400.3C123.8 402.9 127.3 403.7 129.5 402.3C131.5 402.5 133.5 402 134.9 400.8C138.5 397.8 138.7 391.9 135.4 387.2C132.1 382.6 126.3 380.9 122.5 383.6ZM121.9 399.5C119.6 397 119.2 393.6 121 391.9C122.8 390.2 126.2 390.7 128.6 393.2C130.9 395.7 131.3 399.1 129.5 400.8C127.6 402.6 124.2 402 121.9 399.5ZM130.9 393.5C130.2 392.1 128.1 390.2 126.9 390C125.7 389.8 126.1 387.8 127.6 388.3C129 388.8 131.1 390.5 131.6 391.4C132.9 393.7 131.5 394.8 130.9 393.5ZM132.5 400.4C139.2 391.7 126.2 381.6 121 389.6C125.4 376.5 142.6 393 132.5 400.4Z" fill="#311D00"/>
<path d="M127.6 388.4C126.1 387.9 125.7 389.9 126.9 390.1C128.1 390.3 130.2 392.2 130.9 393.6C131.5 394.8 132.9 393.7 131.6 391.5C131 390.6 128.9 388.8 127.6 388.4Z" fill="white"/>
<path d="M121.1 389.6C126.2 381.5 139.3 391.7 132.6 400.4C142.6 393 125.4 376.5 121.1 389.6Z" fill="white"/>
<path d="M128.6 393.2C126.3 390.7 122.9 390.2 121 391.9C119.2 393.7 119.6 397.1 121.9 399.5C124.2 402 127.6 402.6 129.5 400.8C131.3 399.1 130.9 395.7 128.6 393.2ZM128.5 400.3C127 401.4 124.4 400.5 122.5 398.8C120.5 396.9 120.3 394 121.7 392.7C123.3 391.2 126.1 392.1 127.7 394.1C129.1 395.5 130.3 399 128.5 400.3Z" fill="white"/>
<path d="M121.7 392.6C120.3 394 120.5 396.9 122.5 398.7C124.4 400.4 127 401.4 128.5 400.2C130.3 398.9 129.1 395.4 127.7 393.9C126.1 392 123.3 391.1 121.7 392.6ZM127.2 399.5C124.1 399.8 121.3 396 122.4 394.3C122.4 394.3 123.3 393.1 123.4 394.2C123.7 396.1 125.6 398 127.5 398.5C128 398.7 128.1 399.4 127.2 399.5Z" fill="#311D00"/>
<path d="M123.4 394.2C123.2 393.1 122.4 394.3 122.4 394.3C121.2 396 124.1 399.8 127.2 399.5C128.1 399.3 128 398.6 127.5 398.5C125.7 398.1 123.7 396.1 123.4 394.2Z" fill="white"/>
<path d="M107.7 410.4C108.3 410 109 409.5 109.5 409.1C100.9 403.6 90.3 400 73 405.8C72.7 405.9 72.5 406 72.2 406C76.4 405.2 82.1 404.2 85.7 404.5C90.3 404.8 97 405.5 103.4 409.5L100.2 411.2C85.1 418.5 72.4 420.6 65.2 421.1C58.1 421.6 59.5 417.5 64.1 415.1C66.7 413.8 68.8 411.3 69.8 406.8C69 407.2 69 407 67.9 407.2H67.8C66.3 418.3 44.5 417.2 46.9 402C46.9 402 43.8 395.6 42 391.8C42 392 41.6 389.5 41.8 389.4C41.8 389.4 47.1 398 49.3 400.8C46.4 411.1 61.5 415.4 65.5 407.7C52.2 410.2 51.7 403.4 51.9 401.1C51.8 400.8 51.7 400.4 51.6 400C49.3 397.6 41.7 387.6 33.2 371.9C32 381.1 42.4 402.3 43.3 404.4C44.2 406.6 44.2 406.6 44.2 406.6C41.1 415.3 50.1 426.7 66.3 424C82.1 422.6 100.1 415.9 107.7 410.4Z" fill="white"/>
<path d="M334.3 382.2C334.3 382.2 333.3 382.4 331.6 382.6L332.6 384.7C333.3 386 334 387.3 334.8 388.5C336.6 386.4 338.3 384.1 339.7 381.7C337.9 381.9 336.1 382.1 334.3 382.2Z" fill="#311D00"/>
<path d="M342.1 330.1C343.6 342.1 343.3 354.6 339.8 365.8C342.1 365.6 344.4 365.3 346.7 365.1C348.2 359.7 349 354 349.4 348C349.4 347.5 349.4 346.9 349.4 346.4L401.2 355.2C401.2 355.2 397.8 347.5 396.9 344.9L349.3 336.7C349.3 336.2 349.3 335.7 349.2 335.2C349.1 333.3 348.9 331.3 348.6 329.3C346.5 329.7 344.3 329.9 342.1 330.1Z" fill="#311D00"/>
<path d="M254.9 322.6C258.9 335.9 263.5 346.9 264.6 352C265.1 354.5 265.8 357.3 266.5 360.5C269.2 360.9 271.9 361.4 274.4 361.8C274.4 361.3 274.4 360.8 274.3 360.3C283 354 289.7 343.7 293.4 334.1L292.8 332.8C292.4 332.8 291.9 332.8 291.5 332.7C282.4 332.2 272.4 330.8 262.2 326.4C264.8 336.2 267.4 345.7 268.9 354.5C267.1 346.9 262.9 336.6 259.1 325C257.7 324.1 256.3 323.4 254.9 322.6Z" fill="#311D00"/>
<path d="M249.5 299.8C250.6 300.8 251.6 301.8 252.6 302.7C252.9 302.9 253.1 303.1 253.4 303.3C250.3 287.6 250.2 271 258.2 256.1L256.4 252.2C253.5 257.1 251.1 262.8 249.7 269.4C247.5 279.1 247.9 289.6 249.5 299.8Z" fill="#311D00"/>
<path d="M336.8 288C333.7 273.4 337 246.3 347.6 238.5C332.4 240.4 328.2 278.5 336.8 288Z" fill="white"/>
<path d="M285.8 317.1L259.6 259.5C253.6 274.7 254.5 290.7 257.5 306.4C265.9 312.3 273.7 315.8 285.8 317.1Z" fill="#311D00"/>
<path d="M500 403.7C497.7 372.3 490.6 341.1 478.8 307.9L477.4 304.5C474.4 296.7 469 295.2 460.4 296.3L453 297.1C437.9 298.4 413.5 301 393.3 297.5L365.7 232.1C365.5 232.1 365.2 232.1 365 232.1C364.4 232.1 363.9 232.2 363.4 232.3C370.9 250.1 395.5 308.4 395.5 308.4C390.8 309.3 385.6 309.6 385.6 309.6L354.5 236.6C353.7 237.4 353.2 238.1 352.9 238.5C352.7 238.8 352.6 238.9 352.6 238.9C352.6 238.9 363 263.7 374.7 291.5C373.4 290.8 372.1 290.1 371.3 289.4C365.8 286 353.2 276.9 342.6 261C342.6 261 342.5 261.2 342.4 261.7C342.3 262.2 342.1 263.1 341.9 264.2C356.6 286.8 376.3 295.2 376.3 295.2L381.2 307.2C361.6 301.5 345.2 283.7 340.6 278.4V279.9V281.2C351.7 295.3 366.3 305.3 381.8 310.5C370.3 312 357.7 313.4 345.8 314.7C343.5 314.9 341.3 315.2 339.1 315.4C337.6 309.5 335.7 304 333.6 299C322.5 272.8 292.2 284.8 294.4 300.6C285.2 280.2 275.8 259.5 268.8 244C271.5 241.1 277 235.5 285.8 229.8C279.6 232.5 274.7 236.8 274.7 236.8C272.3 238.7 270.1 240.6 268.1 242.6C267.6 241.4 267.1 240.3 266.6 239.2C264.8 235.2 263.2 231.7 261.9 228.8C266.4 225.9 271 222.9 276.8 220.8C293.6 214 313 209.3 331.6 205.4C332.6 205.2 333.7 205 334.7 204.8C335.3 214.1 330.6 217.6 322.5 219.3C317.2 220.4 312.9 220.6 310.8 221.3L315.8 221.5C316.1 221.5 321.6 221.5 329.3 218.8C334.3 216.9 338.1 213.5 336.5 204.4C337.4 204.2 338.2 204 339.1 203.9C340.5 212.6 339.2 220.9 322.4 222.6C325.3 224.6 351.4 219.7 367.2 223.3C367.6 223.5 374.2 225.7 366.6 229C381.2 225.8 382 211.2 379.2 200.4L379.8 200.5C382.5 200.7 384.9 201 386.7 201.4C388.1 201.6 389.8 201.7 391.6 202C402.5 203.1 401.5 190.2 395.8 188.6C391.4 187.3 390.3 187.3 389.2 187.1L387.7 186.9L374.1 156.6L381.6 153.1L401 188.1C410 202.4 395.1 208.3 386.8 204C385.7 204.6 384.9 205.1 384.3 205.7C386.6 207.3 389.6 208.2 392.8 208.2C398.3 208.2 403 205.7 405.2 201.7C406.8 198.8 407.8 193.8 403.4 186.8L383 149.5L366.5 156.8C367.8 157.1 368.7 157.6 369.2 158.6L372.1 157.4L384.9 186.2C383.3 185.9 379 185.5 377.9 185.4L374.7 185.3C371.9 176.8 368.3 165.9 365.8 159.5C364.4 159.2 361.9 159.1 361.2 159.1C361.2 159.2 361.3 159.2 361.3 159.3C363.2 162.9 369.1 181.1 371.1 186.1C373.8 193 373.6 196.9 373.6 196.9L360.9 196.7C360.7 193 357.2 186 357.2 186L352.5 176.5L351.2 173.8L346.3 163.5C345.8 162.3 344.9 159.9 344.6 157.8C343.8 151.1 350.3 151.1 350.5 151.1C353.9 151.2 356.7 152.4 359.4 156.3H361.2C357.3 148.4 355 146 352.4 141.7C303.2 71.5 221.3 50.8 149.3 68.3C240.6 54.9 310.3 94.2 345.1 153C342.2 154.4 337.4 156.9 335.1 158.1C334.1 158.1 330.4 158 329.1 158.1C326.9 158.3 324.9 158.4 326.4 163.5C327.5 167.3 327.9 168.2 328.8 170.6C329.8 173.4 333.1 182 335.6 189.2C334.8 189.4 333.9 189.5 333.1 189.7C332.7 188.4 332.2 187.1 331.6 185.6C328.8 178.4 325.3 169 324.3 165.8C323.8 164.2 323 161 323.9 158.3C323.9 158.3 320.4 161 323.5 168.3L331.3 189.9C330.2 190.1 329.2 190.3 328.1 190.5C304.4 195.2 281.3 201.5 268.3 207C268.3 207 258.6 210.5 251.6 216.2C251.3 216.4 251.2 216.6 251.2 216.7C249.2 217.3 247.3 218.6 246.1 220.3C245.1 221.1 242.9 222.9 241.9 224C239.2 227.2 236.8 229.9 233.7 234.2C231 238.2 221.4 253.4 212.9 267.2C212.2 267.5 211.4 267.9 210.8 268.4C208.5 270.2 207.1 273.3 207.6 276.4C200.7 287.7 196.6 294.2 194.9 296.9C191.1 297.2 189.1 300.2 189 300.6C187.3 304 180 315.9 178.7 317.2C177.9 318 176.2 321.2 176.9 324.8L176.2 326.1L160.2 350C158.8 352 158.6 354.1 159.6 356.2C160.9 359 164.2 361.1 167.6 361.3C169.4 361.4 171.1 361 172.4 360C178.9 361.1 223.8 368.6 257.6 374.2C259 374.4 260.4 374.7 261.8 374.9C264.1 375.3 266.3 375.7 268.5 376C270.4 376.3 272.2 376.6 273.9 376.9C273.1 386.7 270.6 395.3 266.9 402.7L268.4 402.9C291.9 404.8 308.7 400.6 320.3 392.8C321.3 394.7 322.4 396.5 323.5 398.3C334.8 416.3 352 428.2 374.6 434.2C397.7 440.3 424 439.7 449.3 432.3C452.3 433.8 455.2 432.9 457.2 431.9C457.8 431.6 458.3 431.2 458.7 430.8C486.1 424.6 490.7 422.3 492.4 420.8C492.6 420.7 492.8 420.6 492.9 420.5C500.4 416.3 500 404.3 500 403.7ZM460.6 397.4C459.5 386.2 457.6 374.7 455.1 363.5C461.4 362.3 473.1 359.4 477.3 358.3L477.6 360.1C479.8 372 483.1 390 484.4 401C484.5 402.1 484.4 403 484.2 403.7C482.1 403.3 480.5 403.2 480.1 403.2C473.4 402.1 466.8 400.1 460.6 397.4ZM461.7 311.4H462.3C464.5 316.4 467.9 327.1 468.8 330.9L470.9 339.3C464.3 340.8 457 341.9 449.7 342.6C446.8 333.1 443.6 324.1 440.3 316.1C456.6 313.8 461.7 311.4 461.7 311.4ZM478.5 355C478.5 355 474.3 357.1 455.1 360.6C455.1 360.6 453.5 354.6 452.8 351.5C452.8 351.5 469.1 348.1 475.4 345.7C475.4 345.7 475.3 343.6 472.1 343.6C472.1 343.6 455.6 347.8 451.8 348.1L450.9 345.6C450.9 345.6 465 342.9 469.8 341.8C469.8 341.8 479.8 338.4 482 346C482 346 484.2 352.6 478.5 355ZM476.2 309.9C489 345.7 498.9 394.7 496 411.7C496 409.5 492.6 405.5 486.8 404.3C486.8 404.3 486.9 402.1 486.7 399.3C485.2 384.5 479.9 357.7 479.9 357.7C488.1 355 487.4 338.2 473.4 338.3C470 323.1 465.1 310.9 465.1 310.9C472.7 306.7 469.2 299.7 465 298.4C465.1 298.3 472.7 296.7 476.2 309.9ZM462 299.9C464.6 300.3 465.7 301.9 466 304C466.1 304.8 465.7 307.8 462.4 308.4L461.2 308.7C458.2 309.6 452.3 311 446.3 312.2C442.6 312.9 439.2 313.6 439.5 313.4C438.7 311.7 438.2 309.9 435.9 305.5C442.5 304.4 450.9 302.7 456.7 301C458.6 300.4 462 299.9 462 299.9ZM449.2 300C446.5 301.1 433.8 302.7 433.8 302.7C432.1 301.3 430.4 301.1 429.9 301.1H429.8H429.9C434.8 301.4 449.2 300 449.2 300ZM422.5 301.8C419.8 302.2 419.6 304.7 419.6 304.7C413.1 306.3 398 308 398 308L394.9 300.9C410.7 303.1 422.5 301.8 422.5 301.8ZM394.4 190.7H394.5H394.6C396.5 191 397.6 193.4 397.5 195.5C397.4 196.6 396.7 199.1 393 199.1C389.6 198.4 380.7 197.5 376.2 197.1C376.2 193.3 373.9 187.8 373.9 187.8C378.8 188.3 391.7 189.8 394.4 190.7ZM360.4 201.2C360.4 201.2 368 201.2 371.9 201.3C371.9 201.3 369 206.7 357 205.8C357 205.8 360.2 203.6 360.4 201.2ZM339.4 157.9L342.7 156.2C342.7 156.2 343 156 343 156.1C342.8 156.5 342.9 157.3 342.9 157.3C342.8 158.4 342.9 159 344.1 162.3C346 167.5 356.1 188.3 357.2 191.4C363 206.5 348 209.3 346.4 202.6C362.4 201.4 355.9 184.7 346.8 187C343.3 178.5 340.6 169.9 340.6 169.9C340.6 169.9 337 160.8 339.4 157.9ZM338 170.2L344.2 187.6L340.9 188.2C340.9 188.2 336.9 177 334.3 169.3C332.4 163.4 333.8 160.6 333.8 160.6L336.8 159.2C335.5 163.5 338 170.2 338 170.2ZM269 210.1C285.1 203.4 318.4 194.8 347.3 190.1C350.4 189.7 352.9 191.8 353.3 194C353.6 196 352.6 198.3 348.8 198.9L347 199.2C323.9 203.8 297.8 209 275.9 217.9C269 220.4 265.4 222.5 261.5 225.4C261.5 225.4 259.4 220.8 258.6 219.4C257.4 217.2 257.2 217 256.2 216.5C259.4 214.5 263.5 212.5 269 210.1ZM248.2 222.7C249.4 220.6 251.9 219.4 253.5 219.5C254.7 219.5 255.7 219.9 255.8 220L300 317.9C300 317.9 293.9 318.2 289.1 317.2C270.3 276 248.2 227.7 248.2 227.6C247.2 225.9 247.2 224.3 248.2 222.7ZM256.4 252.3L258.2 256.2C250.3 271.1 250.4 287.6 253.4 303.4C253.1 303.2 252.9 303 252.6 302.8C251.7 301.9 250.6 300.9 249.5 299.9C242.4 293.1 233 283.5 226.6 276.7C235.5 262.3 244.1 248.5 244.1 248.5C246.4 244.8 248.9 241.1 250.3 239L256.4 252.3ZM259.6 259.5L285.8 317.1C273.7 315.7 265.9 312.2 257.6 306.4C254.5 290.7 253.6 274.7 259.6 259.5ZM236.2 236.1C239.1 231.4 245.9 223.3 245 224.4C245 224.4 244.8 226.8 246.1 229.4C247.1 231.5 249.2 236.6 249.2 236.6C249.5 236.3 244.5 242.5 241.8 246.9L225 274.5L220.5 269.5C220.5 269.5 218.6 267.2 216.8 267.2C225.4 252.8 233.4 240.1 236.2 236.1ZM262.2 326.3C272.4 330.7 282.4 332 291.5 332.6C291.9 332.6 292.3 332.7 292.8 332.7L293.4 334C289.8 343.6 283.1 354 274.3 360.2C274.3 360.7 274.4 361.2 274.4 361.7C271.9 361.3 269.2 360.9 266.5 360.4C264.5 360.1 262.4 359.8 260.3 359.4C259.3 359.2 258.3 359.1 257.3 358.9C226.5 354 188.9 348 182 346.9L189.3 336.2C198.7 341.8 212.1 350.1 212.1 350.1C221.3 356 228.4 347.5 230.7 344.6C232.4 342.3 237.8 335.1 237.6 328.9C237.4 322.9 232.8 319.7 228.7 317L209.6 304.4C211.4 301.5 214.2 296.9 218.6 289.9C227.2 298.5 237.1 307.9 237.2 308C243.1 314.4 249.1 319.1 255 322.5C256.4 323.3 257.8 324.1 259.2 324.8C263 336.4 267.2 346.7 269 354.3C267.5 345.5 264.8 336 262.2 326.3ZM415.1 355.6C413.5 356.3 405.5 357.5 405.5 357.5C403.6 353.9 391.5 324.3 391.5 324.3C392.9 324.1 401 322.8 401 322.8C407.2 339.9 415.1 355.6 415.1 355.6ZM417.5 354.9L413.9 346.5C426.1 346.7 434.8 346.6 434.8 346.6C436.3 352 431.2 352.2 431.2 352.2L417.5 354.9ZM412.8 343.9L403.6 322C409.8 321 415.5 320.1 420.6 319.1H420.7H420.8C422.1 318.7 423.2 318.7 424 319.1C425.3 319.8 425.8 321.4 425.8 321.4V321.5V321.6C427.8 326.8 431.6 337.9 433.5 343.7C425.7 344 418.4 344 412.8 343.9ZM396.1 342.6L349.3 334.4V335.2C349.3 335.7 349.3 336.2 349.4 336.7L397 344.9C397.9 347.5 401.3 355.2 401.3 355.2L349.5 346.4V348V348.8L400.6 357.5C383.6 360.4 365.9 363.1 346.9 365.1C344.6 365.3 342.3 365.6 340 365.8C343.4 354.6 343.8 342.1 342.3 330.1C344.5 329.9 346.7 329.6 348.9 329.4C362.1 327.9 375.8 326.2 388.6 324.3C391.2 330.9 393.8 337.1 396.1 342.6ZM322.3 367.4C322.3 367.4 318.2 368.2 311.3 367.6C308 361.4 304.4 353 295.2 332.9C301.5 333.6 306.2 333 306.2 333L322.3 367.4ZM227.5 322.4C223.3 319.6 207 308.7 207 308.7L208.7 307C216.1 311.7 225.7 318.1 229.9 321.3C237.4 327 233.3 333.8 233.3 333.8C234.1 329.8 232.3 325.7 227.5 322.4ZM196.4 300.3L196.5 300.1C196.7 299.8 199.2 295.6 208.8 280C211.7 284 216.3 288.2 216.3 288.2L204.6 306.7C203 307.9 199.7 306.7 197.7 304.7C197.3 304.3 195 301.9 196.4 300.3ZM192.7 301.2C192.4 306.7 200.8 311.1 204.8 310.1L226.2 324.4C229.4 326.7 232.6 330.6 230.7 336C230.4 331 224.2 327.1 224.2 327.1C224.2 327.1 201.2 313.6 194.2 309.2C190.2 306.5 190.6 303 192.7 301.2ZM182 318.2C186.2 312.2 188.3 308.8 189.2 307.3C190.1 309.3 192.9 310.9 192.9 310.9C200 315.4 214.9 324.4 219.2 326.8C223.8 329.4 224.8 330.6 224.8 330.6C230.2 335.7 229.1 340.8 226.5 344.3C223.5 348.3 217.8 350.8 213.1 347.7L206.7 343.7L204.4 342.3L184.4 330H184.3H184.2C184.2 330 180.9 328.5 180 325.4C179.5 323.2 180.2 320.9 182 318.2ZM168.1 358.5C165.8 358.4 163.4 356.9 162.5 355C162 353.9 162.1 352.8 162.9 351.7L178.1 328.4C179.1 330.2 186.7 334.8 186.7 334.8C183.5 339.6 172 356.6 172 356.6C171 358.4 169.3 358.6 168.1 358.5ZM448.8 429.3C448.8 429.3 448.9 429.6 445.1 430.9C421.6 436.9 396.4 437.3 375.2 431.7C356 426.6 333.2 415.5 320.6 387.5C320.6 387.5 319 384.5 318.6 383C318.6 383 325.1 383.1 329.3 382.8C348.9 424.8 399.5 432.6 442.8 421.5C442.8 421.5 446.8 420.8 447.9 419.6C448.8 417.5 448.7 412.2 448.7 412.2C448.6 411 447.6 385.1 442.9 367.9C442.5 366.1 441.9 365 441.4 364.5C441.4 364.5 440.1 364 439.2 363.9C436.9 363.8 433.8 364.5 433.8 364.5C407.1 370.9 365.7 376.1 333.1 379.4C333 379.4 330.5 379.8 326.1 380L322.6 380.1C316.4 380.2 307.6 379.8 296.6 378C296.6 378 174.9 358.2 175.4 358.2L181.9 349.3C181.9 349.3 299 368.5 299.1 368.5C317 371.2 325.3 369.9 325.5 369.8C357.1 368 415.4 359.4 429.5 355.6C429.5 355.6 437.1 353.8 438.1 352.8C438.7 352.2 437.1 346.4 437.1 346.4C437 346.2 431.3 327.5 428.5 320.3V320.5C428.4 320.2 427.2 316.2 425.9 315.6H424.9C424.9 315.6 423.2 315.9 421.2 316.4C393.7 321.4 343.4 328.4 313.9 330.2C316.5 330 302 330.7 290.7 329.9C274.6 329 256.8 325 239.1 305.8C238.9 305.6 219.3 286.9 211.4 278.3C209.4 275.5 210.5 272.4 212.5 270.8C214 269.6 216.9 269.1 218.5 271C222 275.6 241.8 296.1 251.6 305.3C262.5 313.8 270.3 318.2 285.4 319.9C293.6 320.9 303.3 320.7 303.8 320.8C323.8 321.3 396.6 312.4 418 308.2C420.7 307.8 422.3 307.2 422.3 307.2V306.8L422.4 305.9C422.4 305.6 423.7 304.6 424.7 304.1C426.7 303.2 429.3 303.2 431.5 305C446.8 333.1 461.8 385.4 458.4 424.9C458.2 427 457.4 428.7 455.8 429.5C455.8 429.6 452.3 431.2 448.8 429.3ZM412.1 372.2C414.1 371.8 422.3 370 422.3 370C431 383.1 445 392.5 445 392.5C445.4 395.8 445.7 404.1 445.7 404.1C423.7 393.4 412.1 372.2 412.1 372.2ZM425.4 369.1C429.9 368.2 434.1 367.3 438 366.4C439 366.1 439.4 366.4 439.5 366.5C440.2 367 440.5 368.3 440.5 368.7V368.9V369C441.9 374.1 443.1 381 443.9 387.8C436.7 382.5 430.4 376.2 425.4 369.1ZM445.8 407.5C446.1 411.3 446.2 413.7 446.2 413.8C446.2 417 444.4 418.1 444.2 418.2C404.1 429.1 356.5 423.5 335 388.5C334.2 387.3 333.5 386 332.8 384.7L331.8 382.6C333.5 382.4 334.5 382.2 334.5 382.2C336.3 382 338.1 381.8 340 381.6C361.5 379.3 387.1 375.9 409.3 372.1C418.8 389.7 432.2 401.2 445.8 407.5ZM461.2 427.9C462.1 423.9 461.9 417.5 461.9 417.5C494 410.6 463.5 407.7 463.5 407.7C470.6 409.9 470.4 412.4 470.4 412.4C467.3 412.6 461.9 411 461.9 411C462.1 409 461.5 400.8 461.5 400.8C469.8 404.4 471.2 403.4 479.8 405.3C488.7 407.3 484.3 410.9 484.3 410.9C479.8 416.5 463.1 418.9 463.1 418.9C491 415.3 488.5 407.6 488.5 407.6C499.9 415 488.7 420.3 482.9 421.9C477.9 423.6 461.2 427.9 461.2 427.9Z" fill="white"/>
<path d="M206.9 339C206.9 339 207.2 339.9 207.9 341.2C208.5 342.3 209.5 343.4 210.7 344.1C219.1 349.1 223.7 342.7 223.8 342.7C223.8 342.6 227.7 337.6 222.1 332.1C222 332 218.5 328.9 213.9 329.5C213.4 327.6 211 322.2 204 322.4C198.4 322.8 197.1 325.8 196.5 327.5C196.5 327.5 195.1 331.3 197.2 334.6C197.1 334.8 199.8 340.1 206.9 339ZM214.3 330.9C220.6 330.7 225.5 337 222.3 341.6L221.2 341.8C215.7 342.5 212.6 340.3 211.7 335.5C212.6 334.9 214 333.2 214.3 330.9ZM207 324.2C210.1 325.2 212.4 327.9 212.2 330.7H212.6C212.3 332.7 210.2 335.5 205.8 334.9C205.6 334 205.5 333.1 205.5 332.1C206.2 332.4 207 332.5 207.9 332.4C207.9 332 208 331.1 208 331.1C207.1 331 206.4 330.7 205.5 330.4C205.5 328.2 206 326 207 324.2ZM199.7 325.6C201.1 324.4 202.2 323.9 204.3 324C203.4 325.4 203.1 327.5 203 329.6C202.6 329.2 202.2 329.2 201.8 328.8V330.3C202.1 330.8 202.5 330.9 203.1 331.3C203.1 332.6 203.2 333.6 203.4 334.5C203.1 334.4 202.9 334.2 202.6 334C198.2 331.5 199.7 325.6 199.7 325.6ZM198.1 327.5C197.4 336.6 205.7 337.9 210.3 336.2C211.3 343.5 217.7 343.7 220.8 343.2C216.9 345.7 209.5 344 208.1 337.1C202.2 338.9 195.6 334.2 198.1 327.5Z" fill="white"/>
<path d="M354.6 166.7C352.7 165.5 349.9 161.5 350.4 158.2C354.7 158.2 355.9 164.5 354.6 166.7Z" fill="#311D00"/>
<path d="M359 178.4C356.8 176.2 355.7 173.9 355.5 170.4C358.9 171.1 361.1 175.4 359 178.4Z" fill="#311D00"/>
<path d="M340.6 170C340.6 170 343.3 178.5 346.8 187.1C355.9 184.7 362.3 201.4 346.4 202.7C348 209.4 363 206.6 357.2 191.5C356 188.5 346 167.6 344.1 162.4C342.9 159.1 342.8 158.5 342.9 157.4C342.9 157.4 342.9 156.5 343 156.2L342.7 156.3L339.4 158C337 160.8 340.6 170 340.6 170Z" fill="#311D00"/>
<path d="M333.9 160.6C333.9 160.6 332.5 163.5 334.4 169.3C336.9 177 341 188.2 341 188.2L344.3 187.6L338.1 170.2C338.1 170.2 335.5 163.5 336.9 159.2L333.9 160.6Z" fill="#311D00"/>
<path d="M371.9 201.2C368 201.1 360.4 201.1 360.4 201.1C360.2 203.5 356.9 205.7 356.9 205.7C369.1 206.6 371.9 201.2 371.9 201.2Z" fill="#311D00"/>
<path d="M220.4 269.5L224.9 274.5L241.7 246.9C244.5 242.5 249.5 236.3 249.1 236.6C249.1 236.6 247 231.4 246 229.4C244.7 226.8 244.9 224.4 244.9 224.4C245.8 223.3 239 231.4 236.1 236.1C233.4 240.2 225.3 252.9 216.5 267.2C218.4 267.1 220.4 269.5 220.4 269.5Z" fill="#311D00"/>
<path d="M449.2 300C449.2 300 434.8 301.4 429.9 301.1C430.3 301.1 432.1 301.3 433.8 302.7C433.8 302.7 446.5 301.1 449.2 300Z" fill="#311D00"/>
<path d="M434.7 346.6C434.7 346.6 425.9 346.7 413.8 346.5L417.4 354.9L431.1 352.2C431.2 352.2 436.2 352 434.7 346.6Z" fill="#311D00"/>
<path d="M401 322.8C401 322.8 392.9 324.1 391.5 324.3C391.5 324.3 403.6 353.9 405.5 357.5C405.5 357.5 413.5 356.3 415.1 355.6C415.1 355.6 407.2 339.9 401 322.8Z" fill="#311D00"/>
<path d="M422.3 370C422.3 370 414.1 371.8 412.1 372.2C412.1 372.2 423.7 393.4 445.7 404.2C445.7 404.2 445.4 395.8 445 392.6C445 392.5 431 383.1 422.3 370Z" fill="#311D00"/>
<path d="M488.6 407.8C488.6 407.8 491.1 415.4 463.2 419.1C463.2 419.1 479.9 416.7 484.4 411.1C484.4 411.1 488.7 407.5 479.9 405.5C471.3 403.6 469.9 404.6 461.6 401C461.6 401 462.1 409.2 462 411.2C462 411.2 467.4 412.8 470.5 412.6C470.5 412.6 470.7 410.1 463.6 407.9C463.6 407.9 494.1 410.8 462 417.7C462 417.7 462.2 424.1 461.3 428.1C461.3 428.1 477.9 423.7 483.1 422.3C488.8 420.5 500.1 415.2 488.6 407.8Z" fill="#311D00"/>
<path d="M295.3 332.9C304.5 353.1 308.1 361.5 311.4 367.6C318.3 368.1 322.4 367.4 322.4 367.4L306.4 333C306.3 332.9 301.5 333.6 295.3 332.9Z" fill="#311D00"/>
<path d="M289.1 317.1C293.9 318.1 300 317.8 300 317.8L255.8 219.9C255.7 219.8 254.7 219.4 253.5 219.4C251.9 219.4 249.4 220.6 248.2 222.6C247.3 224.2 247.3 225.8 248.2 227.4C248.2 227.6 270.2 275.9 289.1 317.1Z" fill="#311D00"/>
<path d="M458.5 425C462 385.5 446.9 333.2 431.6 305.1C429.4 303.3 426.8 303.3 424.8 304.2C423.8 304.7 422.5 305.7 422.5 306L422.4 306.9V307.3C422.4 307.3 420.8 307.9 418.1 308.3C396.7 312.5 323.9 321.4 303.9 320.9C303.4 320.9 293.7 321 285.5 320C270.3 318.3 262.5 313.9 251.7 305.4C241.9 296.2 222.1 275.8 218.6 271.1C217 269.2 214.1 269.7 212.6 270.9C210.5 272.5 209.5 275.6 211.5 278.4C219.4 287 239 305.7 239.2 305.9C256.9 325.1 274.7 329.1 290.8 330C302.1 330.8 316.6 330.1 314 330.3C343.5 328.5 393.8 321.5 421.3 316.5C423.4 316 425 315.7 425 315.7H426C427.3 316.3 428.5 320.3 428.6 320.6V320.4C431.5 327.6 437.2 346.3 437.2 346.5C437.2 346.5 438.8 352.2 438.2 352.9C437.2 353.9 429.6 355.7 429.6 355.7C415.5 359.5 357.1 368.1 325.6 369.9C325.4 369.9 317.1 371.2 299.2 368.6L182 349.4L175.5 358.3C175 358.3 296.7 378.1 296.7 378.1C307.8 379.9 316.5 380.2 322.7 380.2L326.2 380.1C330.6 379.9 333.1 379.5 333.2 379.5C365.8 376.2 407.2 370.9 433.9 364.6C433.9 364.6 436.9 364 439.3 364C440.2 364 441.5 364.6 441.5 364.6C442 365 442.5 366.1 443 368C447.8 385.2 448.8 411.1 448.8 412.3C448.8 412.3 448.9 417.7 448 419.7C446.9 420.9 442.9 421.6 442.9 421.6C399.6 432.7 349 424.9 329.4 382.9C325.2 383.3 318.7 383.1 318.7 383.1C319.1 384.6 320.7 387.6 320.7 387.6C333.3 415.6 356.1 426.7 375.3 431.8C396.5 437.4 421.7 437 445.2 431C449 429.7 448.9 429.4 448.9 429.4C452.4 431.2 455.9 429.6 455.9 429.6C457.4 428.8 458.3 427.1 458.5 425Z" fill="#311D00"/>
<path d="M184.2 329.9L184.3 330L204.3 342.3L206.6 343.7L213 347.7C217.7 350.9 223.4 348.3 226.4 344.3C229 340.8 230 335.7 224.7 330.6C224.7 330.6 223.8 329.4 219.1 326.8C214.8 324.4 199.9 315.4 192.8 310.9C192.8 310.9 190 309.3 189.1 307.3C188.2 308.9 186.1 312.3 181.9 318.2C180 320.8 179.4 323.2 179.9 325.3C180.9 328.4 184.2 329.9 184.2 329.9ZM196.4 327.6C197 325.9 198.3 322.8 203.9 322.5C210.9 322.3 213.3 327.7 213.8 329.6C218.4 329 221.9 332.1 222 332.2C227.6 337.7 223.8 342.7 223.7 342.8C223.7 342.9 219 349.2 210.6 344.2C209.5 343.5 208.4 342.5 207.8 341.3C207.1 340 206.8 339.1 206.8 339.1C199.7 340.2 197 334.9 196.9 334.8C195 331.4 196.4 327.6 196.4 327.6Z" fill="#311D00"/>
<path d="M229.9 321.3C225.7 318.1 216 311.8 208.7 307L207 308.7C207 308.7 223.3 319.6 227.5 322.4C232.3 325.6 234.1 329.7 233.4 333.8C233.4 333.9 237.4 327 229.9 321.3Z" fill="#311D00"/>
<path d="M194.2 309C201.2 313.4 224.2 326.9 224.2 326.9C224.2 326.9 230.4 330.9 230.7 335.8C232.6 330.5 229.4 326.5 226.2 324.2L204.8 310C200.8 311.1 192.4 306.7 192.7 301.1C190.6 303 190.2 306.5 194.2 309Z" fill="#311D00"/>
<path d="M211.7 335.5C212.6 340.4 215.7 342.6 221.2 341.8L222.3 341.6C225.5 337 220.5 330.7 214.3 330.9C214 333.2 212.6 334.9 211.7 335.5Z" fill="#311D00"/>
<path d="M208.1 337.1C209.5 344 216.9 345.7 220.8 343.2C217.7 343.7 211.3 343.5 210.3 336.2C205.7 337.9 197.4 336.6 198.1 327.5C195.6 334.2 202.2 338.9 208.1 337.1Z" fill="#311D00"/>
<path d="M456.8 300.9C451 302.6 442.6 304.3 436 305.4C438.3 309.8 438.8 311.6 439.6 313.3C439.3 313.5 442.7 312.8 446.4 312.1C452.4 311 458.3 309.6 461.3 308.6L462.5 308.3C465.8 307.7 466.2 304.7 466.1 303.9C465.8 301.8 464.7 300.3 462.1 299.8C462 299.9 458.6 300.4 456.8 300.9Z" fill="#311D00"/>
<path d="M469.8 341.8C465.1 342.9 450.9 345.6 450.9 345.6L451.8 348.1C455.6 347.7 472.1 343.6 472.1 343.6C475.2 343.5 475.4 345.7 475.4 345.7C469.1 348.1 452.8 351.5 452.8 351.5C453.5 354.6 455.1 360.6 455.1 360.6C474.3 357.2 478.5 355 478.5 355C484.1 352.6 482 346.1 482 346.1C479.8 338.4 469.8 341.8 469.8 341.8Z" fill="#311D00"/>
<path d="M465.2 310.8C465.2 310.8 470.1 323 473.5 338.2C487.5 338.1 488.3 354.9 480 357.6C480 357.6 485.3 384.5 486.8 399.2C487 401.9 486.9 404.2 486.9 404.2C492.7 405.4 496.1 409.5 496.1 411.6C498.9 394.7 489 345.6 476.3 309.8C472.8 296.6 465.2 298.2 465.2 298.2C469.3 299.6 472.9 306.6 465.2 310.8Z" fill="#311D00"/>
<path d="M419.6 304.7C419.6 304.7 419.8 302.2 422.5 301.8C422.5 301.8 410.7 303.1 394.9 300.9L398 308C398 308 413.1 306.3 419.6 304.7Z" fill="#311D00"/>
<path d="M172 356.7C172 356.7 183.5 339.6 186.7 334.9C186.7 334.9 179 330.3 178.1 328.5L162.9 351.8C162.1 352.9 162 354 162.5 355.1C163.4 356.9 165.8 358.4 168.1 358.6C169.3 358.6 171 358.4 172 356.7Z" fill="#311D00"/>
<path d="M258.6 219.5C259.4 220.8 261.5 225.5 261.5 225.5C265.4 222.6 269 220.5 275.9 218C297.8 209.1 323.9 203.9 347 199.3L348.8 199C352.6 198.4 353.6 196.1 353.3 194.1C353 191.9 350.4 189.8 347.3 190.2C318.5 194.9 285.1 203.5 269 210.2C263.5 212.5 259.4 214.5 256.2 216.7C257.2 217.2 257.4 217.4 258.6 219.5Z" fill="#311D00"/>
<path d="M204.7 306.7L216.4 288.2C216.4 288.2 211.8 284 208.9 280C199.3 295.6 196.8 299.8 196.6 300.1L196.5 300.2L196.4 300.3C195 301.9 197.3 304.3 197.8 304.7C199.8 306.7 203.1 308 204.7 306.7Z" fill="#311D00"/>
<path d="M376.1 197.1C380.6 197.5 389.5 198.4 392.9 199.1C396.7 199.1 397.3 196.6 397.4 195.5C397.6 193.5 396.5 191 394.5 190.7H394.4H394.3C391.6 189.8 378.7 188.3 373.7 187.8C373.8 187.9 376.1 193.3 376.1 197.1Z" fill="#311D00"/>
<path d="M401.2 188.1L381.8 153.1L374.3 156.6L387.9 186.9L389.4 187.1C390.5 187.3 391.6 187.3 396 188.6C401.7 190.3 402.7 203.1 391.8 202C390 201.8 388.3 201.6 386.9 201.4C385 201.1 382.7 200.7 380 200.5L379.4 200.4C382.2 211.2 381.4 225.8 366.8 229C374.3 225.7 367.7 223.4 367.4 223.3C351.7 219.7 325.5 224.5 322.6 222.6C339.4 221 340.7 212.6 339.3 203.9C338.4 204.1 337.6 204.3 336.7 204.4C338.3 213.5 334.5 216.9 329.5 218.8C321.8 221.4 316.3 221.5 316 221.5L311 221.3C313.2 220.6 317.5 220.4 322.7 219.3C330.8 217.6 335.5 214.1 334.9 204.8C333.9 205 332.8 205.2 331.8 205.4C331.9 208.1 331.6 210.3 330.6 212C329 214.9 323.3 216.1 320.3 216.6C320.3 216.6 315.9 217.2 316 217.2C298.6 219.4 291.8 222.7 280.8 228.6C280.8 228.6 279.4 229.5 278.8 229.9C275.5 231.9 271.1 234.9 266.7 239.2C267.2 240.3 267.7 241.4 268.2 242.6C270.2 240.6 272.4 238.7 274.8 236.8C274.8 236.8 279.7 232.5 285.9 229.8C277.1 235.5 271.6 241 268.9 244C275.9 259.5 285.3 280.2 294.5 300.6C292.4 284.8 322.7 272.8 333.7 299C335.8 304 337.7 309.6 339.2 315.4C341.4 315.2 343.6 315 345.9 314.7C345.2 311.8 344.4 308.8 343.4 305.9C341.8 299.2 340.6 289.8 340.6 279.9C340.6 279.4 340.6 278.9 340.6 278.4C345.2 283.7 361.6 301.5 381.2 307.2L376.3 295.2C376.3 295.2 356.5 286.8 341.9 264.2C342.1 263.1 342.3 262.2 342.4 261.7C344.1 253.4 347 245.6 351.8 239.6C352.1 239.2 352.4 238.9 352.7 238.5C353 238.1 353.5 237.4 354.3 236.6L385.4 309.6C385.4 309.6 390.6 309.2 395.3 308.4C395.3 308.4 370.7 250.1 363.2 232.3C363.7 232.2 364.2 232.2 364.8 232.1C365 232.1 365.3 232 365.5 232C366 232 366.4 231.9 366.6 231.9C374 230.6 377.9 227.2 380.8 222.1C383.2 217.7 383.6 211.8 383.2 207.1C383.6 206.6 384 206.1 384.5 205.7C385.1 205.1 385.9 204.6 387 204C395.3 208.3 410.3 202.4 401.2 188.1ZM336.8 288C328.2 278.5 332.4 240.4 347.6 238.5C337 246.3 333.6 273.5 336.8 288Z" fill="#311D00"/>
<path d="M207.8 332.5C206.9 332.5 206.1 332.4 205.4 332.2C205.4 333.2 205.5 334.1 205.7 335C210.1 335.7 212.2 332.9 212.5 330.8H212.1C212.3 328 210 325.3 206.9 324.3C205.9 326.1 205.4 328.2 205.4 330.6C206.2 331 207 331.3 207.9 331.3C207.9 331.3 207.8 332.1 207.8 332.5Z" fill="#311D00"/>
<path d="M202.6 334C202.9 334.1 203.1 334.4 203.4 334.5C203.1 333.6 203.1 332.6 203.1 331.3C202.5 330.9 202.1 330.8 201.8 330.3V328.8C202.2 329.3 202.6 329.3 203 329.6C203.1 327.5 203.5 325.4 204.3 324C202.2 323.9 201.1 324.4 199.7 325.6C199.7 325.6 198.2 331.5 202.6 334Z" fill="#311D00"/>
<path d="M320.9 170C320.5 169.1 319.9 167.5 319.5 165.6C319.1 164 319 162.2 319.3 160.5C319.5 159.7 319.7 158.9 320.2 158.2C320.3 158 320.5 157.9 320.6 157.7C320.9 157.3 321.2 157 321.6 156.7C321.8 156.5 322 156.4 322.2 156.2C311.4 137.9 294.9 119.4 273.9 104.2C256.5 91.7 236 81.4 213 75.4C212.7 75.3 212.5 75.2 212.2 75.2C212 75.2 211.9 75.1 211.7 75.1C188.4 69.2 162.6 67.6 134.8 72.3C95.9 85 60.7999 109 36.5999 142.6C36.3999 142.9 36.1999 143.1 35.9999 143.4C35.8999 143.5 35.7999 143.7 35.6999 143.8C6.69995 184.8 -6.00005 239.8 10.4999 305.6C23.0999 351.4 37.7999 375.6 53.6999 398.4C53.6999 398.4 52.9999 409.4 71.9999 403.7C76.2999 402.4 80.2 401.4 83.8999 400.8C94.9999 399.1 104.3 401.4 117.8 411.5C118.6 412.1 119.4 412.7 120.3 413.3C152 435.4 204.2 445.1 238.1 427.4C246.8 422.9 254.3 416.5 259.9 408.1L260.1 407.7C262.7 404.1 264.2 400.7 265.6 396.9C268.1 390 268.7 383 268.5 376.4C266.4 376 264.1 375.7 261.8 375.3C260.3 403.8 232.1 431.2 181.6 428C160.6 427.2 138.1 417 124.7 409.7C118.5 405.6 101.2 395.8 92.7999 394C99.9999 394.4 118.2 403.9 125.8 408.3C141.4 416.3 163.1 424 181.6 424.8C215.3 428 253.5 410.7 257.6 374.6C223.8 369 178.9 361.5 172.4 360.4C171.1 361.3 169.4 361.8 167.6 361.7C164.2 361.5 160.9 359.4 159.6 356.6C158.6 354.5 158.8 352.3 160.2 350.4L176.2 326.5L176.9 325.2C176.1 321.5 177.9 318.3 178.7 317.6C180 316.3 187.3 304.3 189 301C189.2 300.6 191.1 297.6 194.9 297.3C196.6 294.6 200.7 288.1 207.6 276.8C207 273.6 208.5 270.5 210.8 268.8C211.5 268.3 212.2 267.9 212.9 267.6C221.5 253.7 231.1 238.5 233.7 234.6C236.8 230.4 239.2 227.6 241.9 224.4C242.9 223.3 245.1 221.5 246.1 220.7C247.4 219 249.3 217.6 251.2 217.1C251.2 216.9 251.3 216.8 251.6 216.6C258.5 211 268.3 207.4 268.3 207.4C281.3 202 304.5 195.7 328.1 190.9C326.4 186.1 321.2 171 321.2 171C321.3 170.8 321.1 170.5 320.9 170ZM213.8 369.1C219.3 369.1 223.8 373.6 223.8 379.2C223.8 383.3 221.3 386.8 217.7 388.4C216.5 389.7 214.8 390.5 213 390.5C210.4 390.5 208.1 388.9 207.1 386.6C205.1 384.8 203.8 382.1 203.8 379.1C203.8 373.6 208.3 369.1 213.8 369.1ZM134.9 400.8C133.5 402 131.5 402.5 129.5 402.3C127.2 403.7 123.8 402.9 121.3 400.3C119 397.9 118.3 394.6 119.4 392.4C118.9 388.9 120 385.3 122.5 383.6C126.3 380.9 132.1 382.6 135.4 387.3C138.7 392 138.5 397.8 134.9 400.8ZM184.3 373.9C167.5 391.7 134.2 391.6 115.2 367.3C147.3 397 177.2 377.4 184.3 373.9ZM153.9 352.7C151.9 353.4 149.7 353.7 147.5 353.7C141.3 353.7 135.2 350.9 130.7 346.1C121.8 336.8 121.2 322.4 129.4 314C133.1 310.2 138.1 308.2 143.5 308.2C149.7 308.2 155.8 311 160.3 315.8C164.9 320.6 167.3 326.8 167.4 332.7L153.9 352.7Z" fill="#FF3C00"/>
<path d="M372.2 157.5L369.3 158.7C368.8 157.7 367.9 157.1 366.6 156.9C366.2 156.8 365.8 156.8 365.4 156.7C259.5 -32.4 -66.4001 72.4 12.0999 322.5C17.5999 340.1 24.3999 355.4 30.8999 367.8C30.2999 370.1 29.4999 374.3 30.7999 379.9C32.8999 387.9 34.6999 392.8 41.1999 407C38.5999 416.6 47.5999 430.7 69.3999 426.5C95.2999 422.5 108.9 413.1 112 410.7C112.9 411.3 113.8 412 114.6 412.6C160.6 448.5 235.8 451.3 263.5 408.9C274.6 411.2 288.4 409.3 288.4 409.3C302.8 408.4 314.4 404.5 323.4 398.5C322.3 396.7 321.2 394.9 320.2 393C308.6 400.8 291.9 405 268.3 403.1L266.8 402.9C270.5 395.5 273 386.9 273.8 377.1C272.1 376.8 270.3 376.5 268.4 376.2C268.6 382.8 268 389.8 265.5 396.7C264.2 400.5 262.6 403.8 260 407.5C260 407.5 259.7 407.9 259.8 407.9C254.2 416.3 246.7 422.6 238 427.2C204.1 444.9 151.9 435.3 120.2 413.1C119.4 412.5 118.5 411.9 117.7 411.3C104.3 401.4 94.9999 399.1 83.9999 400.8C80.2999 401.4 76.3999 402.4 72.0999 403.7C53.0999 409.5 53.7999 398.4 53.7999 398.4C37.7999 375.7 23.0999 351.4 10.5999 305.6C-5.80008 239.8 6.79992 184.8 35.7999 143.8C35.8999 143.7 35.9999 143.5 36.0999 143.4C36.2999 143.1 36.4999 142.9 36.6999 142.6C60.7999 109 95.8999 85 134.9 72.5C162.7 67.8 188.5 69.4 211.8 75.3C212 75.3 212.1 75.4 212.3 75.4C212.6 75.5 212.8 75.6 213.1 75.6C236.2 81.6 256.7 91.9 274 104.4C295.1 119.6 311.5 138.1 322.3 156.4C322.1 156.5 321.9 156.7 321.6 156.9C321.2 157.2 320.9 157.5 320.6 157.9C320.5 158.1 320.3 158.2 320.2 158.4C319.7 159.1 319.5 159.9 319.3 160.7C319 162.4 319.1 164.2 319.5 165.8C319.9 167.6 320.5 169.2 320.9 170.2C321.1 170.6 321.2 170.9 321.3 171C321.3 171 326.6 186.1 328.2 190.9C329.3 190.7 330.3 190.5 331.4 190.3L323.6 168.7C320.5 161.4 324 158.7 324 158.7C323.1 161.4 323.9 164.6 324.4 166.2C325.4 169.4 328.8 178.8 331.7 186C332.2 187.4 332.7 188.8 333.2 190.1C334 189.9 334.9 189.8 335.7 189.6C333.3 182.3 330 173.8 328.9 171C328 168.6 327.6 167.7 326.5 163.9C325 158.7 327 158.6 329.2 158.4C330.5 158.3 334.2 158.4 335.2 158.4C337.5 157.2 342.3 154.8 345.2 153.3C310.4 94.6 240.8 55.3 149.4 68.6C221.5 51.1 303.3 71.8 352.5 142C355.1 146.4 357.3 148.8 361.3 156.6C360.8 156.6 360.1 156.6 359.5 156.6C356.8 152.7 354 151.5 350.6 151.4C350.4 151.4 343.9 151.4 344.7 158.1C344.9 160.2 345.8 162.6 346.3 163.8H346.4L351.3 174.1L352.6 176.8L357.3 186.3C357.3 186.3 360.8 193.3 361 197L373.7 197.3C373.7 197.3 373.9 193.4 371.2 186.5C369.2 181.5 363.4 163.3 361.4 159.7C361.4 159.6 361.3 159.6 361.3 159.5C361.9 159.5 364.4 159.5 365.8 159.9C368.3 166.2 371.9 177.1 374.7 185.7C374.7 185.7 377.9 185.9 377.9 185.8C379 185.9 383.3 186.3 384.9 186.6L372.2 157.5ZM109.5 409.2C109 409.6 108.4 410 107.7 410.5C99.9999 416 82.0999 422.7 66.0999 424.2C49.8999 426.8 40.7999 415.4 43.9999 406.8C43.9999 406.8 43.9999 406.8 43.0999 404.6C42.1999 402.5 31.7999 381.3 32.9999 372.1C41.5999 387.8 49.0999 397.9 51.3999 400.2C51.4999 400.6 51.5999 400.9 51.6999 401.3C51.4999 403.6 51.9999 410.4 65.2999 407.9C61.2999 415.7 46.1999 411.4 49.0999 401.1C46.8999 398.4 41.5999 389.7 41.5999 389.7C41.3999 389.8 41.8999 392.3 41.7999 392.1C43.5999 395.8 46.6999 402.3 46.6999 402.3C44.2999 417.4 66.0999 418.6 67.5999 407.5H67.6999C68.7999 407.3 68.7999 407.5 69.5999 407.1C68.6999 411.6 66.4999 414.1 63.8999 415.4C59.1999 417.8 57.8999 421.9 64.9999 421.4C72.1999 420.9 84.9999 418.9 99.9999 411.5L103.2 409.8C96.7999 405.8 90.0999 405.1 85.4999 404.8C81.8999 404.5 76.1999 405.5 71.9999 406.4C72.2999 406.3 72.4999 406.2 72.7999 406.1C90.2999 400.1 100.9 403.7 109.5 409.2ZM363.2 175.5C364.3 180.5 360.7 183.2 357.1 179.1C355.6 177.4 354.9 175.8 354.2 173.7L354.1 173.4C353.5 170.8 353.8 168.6 353.8 168.6C352.7 167.6 351.9 166.7 351.4 165.9C351.2 165.7 351 165.5 350.9 165.3C350 164 349.4 162.7 349.2 161.8C349.1 161.5 349.1 161.2 349 161.1C349 161 349 160.9 349 160.9C348.9 160 348.8 159.3 348.8 158.6C348.8 157.3 349.1 156.5 349.4 156C349.5 155.8 349.6 155.7 349.7 155.6C349.7 155.6 349.8 155.6 349.8 155.5C349.9 155.4 349.9 155.4 350 155.3C350.9 154.7 352.1 155 352.1 155C355.3 155.4 358.9 160 358.9 166.4V167.2C360.8 169.2 362.2 171 363.2 175.5Z" fill="#311D00"/>
<path d="M363.2 175.5C362.2 171 360.8 169.2 358.9 167.3C358.9 167 358.9 166.8 358.9 166.5C358.9 160 355.3 155.5 352.1 155.1C352.1 155.1 350.9 154.8 350 155.4C349.9 155.4 349.9 155.5 349.8 155.6C349.8 155.6 349.7 155.6 349.7 155.7C349.6 155.8 349.5 155.9 349.4 156.1C349.1 156.6 348.8 157.4 348.8 158.7C348.8 159.3 348.9 160.1 349 161V161.2C349 161.4 349.1 161.6 349.2 161.9C349.5 162.7 350 164.1 350.9 165.4C351 165.6 351.2 165.8 351.4 166C352 166.8 352.8 167.8 353.8 168.7C353.8 168.7 353.5 170.9 354.1 173.5L354.2 173.8C354.8 175.9 355.5 177.5 357.1 179.2C360.7 183.2 364.4 180.5 363.2 175.5ZM354.6 166.7C352.7 165.5 349.9 161.5 350.4 158.2C354.7 158.2 355.9 164.5 354.6 166.7ZM359 178.4C356.8 176.2 355.7 173.9 355.5 170.4C358.9 171.1 361.1 175.4 359 178.4Z" fill="white"/>
</g>
<defs>
<clipPath id="clip0_306_138">
<rect width="500" height="500" fill="white"/>
</clipPath>
</defs>
</svg>
