<svg width="500" height="500" viewBox="0 0 500 500" fill="none" xmlns="http://www.w3.org/2000/svg">
<g clip-path="url(#clip0_306_115)">
<path d="M161.5 279.5C162 285.4 164.1 297 170.8 310.1C179.1 326.2 196.6 347.7 232.7 359.8C238.4 368.8 245.2 377.2 252.8 384.8C280.2 412.1 316.6 427.2 355.3 427.1C394 427 430.4 411.9 457.7 384.5C485 357.1 500.1 320.7 500 282C499.9 243.3 484.8 206.9 457.4 179.6C435.7 157.9 408.4 144 378.5 139.2C337.9 102.5 290.6 115.6 288.5 116.2C287.8 116.4 286.8 116.7 285.5 117.1C270.9 121.9 263.4 116.4 258.5 112.6C253.1 108.4 247.2 104.1 241.5 100.8C222.1 89.9 194.6 89.4999 171.5 98.8999C156.2 104.1 148.5 97.3999 144 94.1999C113.8 73.2999 76.6 68.2999 37.2 76.9999C10.6 82.7999 0 88.1999 0 88.1999C0 88.1999 18.2 90.7999 37.2 98.7999C52.8 105.3 65.2 113.7 74.6 128.7C74.6 128.7 80.5 137.4 76.7 139.9C72.4 142.8 67.9 135.8 67.9 135.8C67.8 140.8 67.8 145.9 68.1 149.7C70.3 189.8 78.5 213.9 97.8 232.2C106.6 240.6 121.4 248.7 144.4 257.7C154.8 261.9 160.4 267.3 161.5 279.5Z" fill="white"/>
<path d="M450.9 186.1C429.9 165.1 403.2 151.9 374.3 147.8C336.6 111.8 291.1 125 291.1 125C300.8 126.4 307.2 132.2 304.7 138.6C303.1 142.8 296.1 143 292.8 143.1C282.6 143.2 273.8 137 266.8 131.3C259.5 125.4 247.6 114.8 237 108.9C217.2 97.7 185.6 99.1 162.8 113.7C176.4 114.6 192.8 118.6 202.6 126.7C208.1 131.2 215 140.3 209.3 144.6C204.3 148.3 192 146.4 185.7 142.8C175.8 137 166.8 128.3 161.4 122C125.5 79.3 74.3 76.9 32.2 87.3C59.9 95.1 78.4 110.8 89.8 138C101.2 165.2 110.1 176.8 128.9 184.1C140.7 188.7 143.9 189.6 142.9 194.8C141.5 202.4 127.6 198.8 117 194.6C104 189.5 87 175.6 76.8 149.4C78.7 183.3 85.1 207.3 104.2 225.5C112.3 233.2 127.2 241.2 150.6 250.2C165.5 255.9 177.3 259.4 188.4 269.3C201.3 280.9 195.8 288.5 187.2 287.1C177.5 285.5 170.6 275.5 170.6 275.5C170.6 275.5 170.6 330.7 238.9 352C244.6 361.4 251.5 370.2 259.5 378.2C285.2 403.8 319.3 417.8 355.5 417.8C391.7 417.7 425.8 403.6 451.4 377.9C477 352.2 491.1 318.1 491 281.9C490.7 245.7 476.5 211.7 450.9 186.1Z" fill="#002A5C"/>
<path d="M443.7 193C423.3 172.6 397.2 160.2 369 157.1C344.7 132.9 320.5 134 320.5 134C331.1 140.7 325.6 155.5 302 158.8C278.6 162 248.8 154.1 234.4 137.2C219.5 119.8 208.2 119 208.2 119C221.1 127.1 222.1 136.8 229.9 151.6C237.8 166.4 253.9 171.7 268 172.6C282.9 173.6 283.2 180.3 271.2 187.4C258.1 195.1 246.6 187.8 238.2 179.6C224.9 166.5 211.7 164 193.5 164.2C175.2 164.4 151.1 166.8 130.7 159.2C110.3 151.6 96.9 124.8 96.9 124.8C107 160.4 129.4 177.3 150.1 181.3C177.6 186.7 196.5 193.2 208.1 202.6C219.4 211.8 225.5 221 229.7 233.6C233 243.4 233.6 256.3 230.3 257.1C226.5 258 225.7 252.8 221.3 243.7C216.4 233.7 210.5 225.8 198.6 219.5C182.5 210.9 166.8 211.4 150.8 211.6C138.1 211.8 130.6 210.3 130.6 210.3C130.6 210.3 131.1 212 151.8 216.7C174.9 221.9 197.2 234.9 212 266.6C224.6 293.6 218 312.5 190.1 303.9C190.1 303.9 203.2 333 245.9 343.3C251.4 353 258.3 362 266.4 370.1C290.1 393.8 321.5 406.8 355 406.8C388.5 406.8 419.9 393.8 443.6 370.1C467.3 346.4 480.3 315 480.3 281.5C480.3 248.1 467.3 216.6 443.7 193Z" fill="#4495D1"/>
<path d="M355.1 162.4C386.9 162.4 416.9 174.8 439.4 197.3C461.9 219.8 474.3 249.7 474.3 281.6C474.3 347.3 420.8 400.8 355.1 400.8C323.3 400.8 293.3 388.4 270.8 365.9C248.3 343.4 235.9 313.5 235.9 281.6C235.9 249.8 248.3 219.8 270.8 197.3C293.3 174.8 323.2 162.4 355.1 162.4Z" fill="white"/>
<path d="M355.2 390.4C295.1 390.5 246.3 341.8 246.2 281.7C246.1 221.6 294.8 172.8 354.9 172.7C415 172.6 463.8 221.3 463.9 281.4C464 341.5 415.4 390.4 355.2 390.4Z" fill="#002A5C"/>
<path d="M328.4 259.5H296.2L285.5 278.5L271.2 237.9H438.6L424.3 278.5L413.8 259.5H382L355.2 377.1L328.4 259.5Z" fill="white"/>
<path d="M438.6 237.9H271.2L274 245.6H353.8L328.4 259.5L355.2 377.1V245.6H435.9L438.6 237.9Z" fill="#BBC4CA"/>
<path d="M272.9 143.9C248.6 143.2 238.7 133.6 223.7 121.5C205.3 106.7 184.8 110.8 184.8 110.8C197.1 103.8 221.1 103.5 238.5 118.7C254 132.3 261.6 139.7 272.9 143.9Z" fill="#DA2128"/>
<path d="M65.8 90.5001C65.8 90.5001 88.5 90.0001 108.3 125.6C125 155.5 156.8 161.5 180.1 154.9C180.1 154.9 149.4 154.1 132.6 124.4C115.5 93.9001 92.8 85.5001 65.8 90.5001Z" fill="#DA2128"/>
<path d="M194.3 262.9C194.3 262.9 191.1 229.8 143.9 220.2C96.4 210.5 90.3 185.8 90.3 185.8C90.3 185.8 90.6 221.4 131.5 232.4C160.1 240 181 244.4 194.3 262.9Z" fill="#DA2128"/>
<path d="M371.4 227.5L365 208.4L381.2 196.6H361.1L354.8 177.5L348.7 196.6L328.6 196.9L345 208.5L338.9 227.7L355.1 215.7L371.4 227.5Z" fill="#DA2128"/>
<path d="M299.6 295L286.3 310.1L267.8 302L278.1 319.3L264.7 334.3L284.3 330L294.5 347.3L296.4 327.3L316.1 323L297.6 315L299.6 295Z" fill="#DA2128"/>
<path d="M393.9 323.4L413.7 327.4L415.9 347.4L425.8 329.9L445.5 334L431.9 319.1L441.9 301.7L423.6 310L410 295.1L412.3 315.1L393.9 323.4Z" fill="#DA2128"/>
</g>
<defs>
<clipPath id="clip0_306_115">
<rect width="500" height="500" fill="white"/>
</clipPath>
</defs>
</svg>
